
<!-- Generator: visioncortex VTracer 0.6.4 -->
<svg version="1.1" xmlns="http://www.w3.org/2000/svg" viewBox="0 0 1024 1024" preserveAspectRatio="xMidYMid meet">
<path d="M0 0 C337.92 0 675.84 0 1024 0 C1024 337.92 1024 675.84 1024 1024 C686.08 1024 348.16 1024 0 1024 C0 686.08 0 348.16 0 0 Z " fill="#BE4452" transform="translate(0,0)"/>
<path d="M0 0 C0.966 -0.006 1.931 -0.011 2.926 -0.017 C3.979 -0.018 5.032 -0.02 6.117 -0.021 C7.789 -0.028 7.789 -0.028 9.494 -0.036 C13.185 -0.05 16.877 -0.057 20.568 -0.063 C23.137 -0.068 25.705 -0.074 28.274 -0.08 C32.976 -0.089 37.678 -0.095 42.38 -0.098 C49.278 -0.103 56.175 -0.12 63.073 -0.149 C69.065 -0.174 75.056 -0.181 81.048 -0.183 C83.587 -0.186 86.127 -0.194 88.666 -0.207 C92.229 -0.224 95.792 -0.222 99.355 -0.216 C100.394 -0.225 101.433 -0.234 102.503 -0.244 C114.428 -0.177 123.201 2.526 131.873 10.734 C139.143 18.421 140.789 27.306 140.691 37.566 C140.699 39.21 140.699 39.21 140.707 40.886 C140.72 44.48 140.703 48.074 140.685 51.668 C140.685 54.183 140.687 56.698 140.69 59.214 C140.691 64.475 140.679 69.736 140.656 74.997 C140.629 81.052 140.627 87.107 140.639 93.162 C140.65 99.021 140.644 104.879 140.63 110.737 C140.625 113.215 140.625 115.693 140.629 118.171 C140.632 121.643 140.615 125.114 140.593 128.586 C140.6 130.102 140.6 130.102 140.607 131.648 C140.492 142.793 138.212 152.133 130.189 160.14 C121.083 167.993 110.488 169.603 98.802 169.513 C97.722 169.516 96.643 169.52 95.531 169.524 C91.997 169.532 88.465 169.518 84.931 169.504 C82.458 169.503 79.984 169.504 77.51 169.505 C72.341 169.505 67.171 169.495 62.002 169.477 C55.391 169.454 48.779 169.453 42.167 169.46 C37.065 169.463 31.962 169.457 26.859 169.447 C24.422 169.443 21.984 169.442 19.546 169.444 C16.137 169.444 12.727 169.431 9.318 169.415 C8.32 169.418 7.322 169.42 6.294 169.423 C-5.02 169.337 -14.437 167.144 -22.893 159.18 C-31.12 150.138 -31.954 141.787 -32.02 130.001 C-32.029 128.888 -32.039 127.775 -32.049 126.629 C-32.079 122.953 -32.101 119.277 -32.119 115.601 C-32.126 114.342 -32.133 113.083 -32.139 111.785 C-32.165 106.489 -32.189 101.192 -32.204 95.896 C-32.226 88.34 -32.268 80.785 -32.337 73.229 C-32.39 67.252 -32.41 61.276 -32.419 55.298 C-32.428 52.768 -32.446 50.238 -32.476 47.709 C-32.772 20.849 -32.772 20.849 -21.998 8.64 C-15.864 2.977 -8.316 0.03 0 0 Z " fill="#2F6293" transform="translate(120.81080627441406,401.85955810546875)"/>
<path d="M0 0 C36.036 -0.022 72.071 -0.04 108.107 -0.051 C112.356 -0.052 116.606 -0.054 120.856 -0.055 C121.702 -0.055 122.548 -0.055 123.42 -0.056 C137.138 -0.06 150.856 -0.068 164.574 -0.077 C178.639 -0.086 192.704 -0.092 206.77 -0.094 C215.456 -0.095 224.142 -0.1 232.828 -0.108 C238.776 -0.113 244.724 -0.115 250.673 -0.114 C254.11 -0.113 257.547 -0.114 260.984 -0.119 C264.701 -0.124 268.418 -0.123 272.136 -0.12 C273.783 -0.125 273.783 -0.125 275.464 -0.129 C276.452 -0.127 277.44 -0.125 278.457 -0.123 C279.317 -0.123 280.176 -0.124 281.061 -0.124 C283 0 283 0 284 1 C284 21.46 284 41.92 284 63 C190.28 63 96.56 63 0 63 C0 42.21 0 21.42 0 0 Z " fill="#FBFAFA" transform="translate(351,642)"/>
<path d="M0 0 C76.23 0 152.46 0 231 0 C231 20.79 231 41.58 231 63 C154.77 63 78.54 63 0 63 C0 42.21 0 21.42 0 0 Z " fill="#BE4553" transform="translate(653,642)"/>
<path d="M0 0 C0.98 -0.004 1.96 -0.009 2.969 -0.013 C4.564 -0.012 4.564 -0.012 6.192 -0.012 C7.321 -0.015 8.45 -0.018 9.613 -0.022 C13.346 -0.031 17.079 -0.033 20.812 -0.034 C23.408 -0.037 26.005 -0.041 28.602 -0.044 C34.047 -0.05 39.492 -0.052 44.936 -0.052 C51.216 -0.051 57.496 -0.062 63.775 -0.077 C69.83 -0.092 75.886 -0.096 81.941 -0.095 C84.511 -0.096 87.08 -0.101 89.65 -0.108 C93.247 -0.118 96.844 -0.115 100.442 -0.109 C101.499 -0.115 102.557 -0.12 103.646 -0.126 C115.038 -0.078 126.695 2.818 135.011 11.134 C143.143 21.049 146.631 30.863 146.528 43.641 C146.535 44.734 146.542 45.826 146.55 46.952 C146.567 50.531 146.556 54.109 146.542 57.688 C146.545 60.197 146.549 62.706 146.554 65.216 C146.56 70.462 146.551 75.709 146.532 80.955 C146.513 86.321 146.513 91.686 146.532 97.051 C146.556 103.561 146.559 110.07 146.546 116.58 C146.543 119.048 146.547 121.515 146.556 123.983 C146.652 156.45 146.652 156.45 134.456 169.841 C128.115 175.833 118.802 180.233 110.061 180.288 C108.529 180.301 108.529 180.301 106.965 180.314 C105.284 180.32 105.284 180.32 103.57 180.327 C102.389 180.335 101.208 180.343 99.991 180.351 C96.072 180.376 92.153 180.393 88.233 180.407 C86.881 180.413 85.528 180.418 84.175 180.423 C78.542 180.445 72.908 180.464 67.275 180.475 C59.224 180.491 51.174 180.524 43.124 180.581 C37.452 180.62 31.781 180.64 26.109 180.645 C22.728 180.648 19.348 180.66 15.967 180.693 C12.183 180.725 8.4 180.725 4.617 180.717 C3.514 180.734 2.412 180.75 1.276 180.767 C-10.284 180.675 -19.516 176.597 -27.794 168.599 C-36.241 159.114 -38.288 150.035 -38.296 137.697 C-38.304 136.565 -38.312 135.432 -38.321 134.265 C-38.345 130.53 -38.354 126.795 -38.36 123.059 C-38.369 120.453 -38.378 117.846 -38.388 115.239 C-38.405 109.776 -38.412 104.313 -38.415 98.85 C-38.418 92.562 -38.448 86.275 -38.49 79.987 C-38.529 73.911 -38.54 67.834 -38.541 61.757 C-38.546 59.185 -38.558 56.613 -38.579 54.042 C-38.606 50.433 -38.601 46.826 -38.589 43.217 C-38.603 42.168 -38.618 41.118 -38.634 40.037 C-38.522 28.615 -34.056 18.265 -25.989 10.134 C-18.31 3.925 -9.976 0.02 0 0 Z M-26.239 19.509 C-31.303 27.105 -32.573 33.626 -32.475 42.677 C-32.479 43.797 -32.483 44.917 -32.487 46.07 C-32.494 49.749 -32.473 53.428 -32.45 57.106 C-32.448 59.675 -32.447 62.244 -32.447 64.813 C-32.444 70.186 -32.428 75.56 -32.401 80.934 C-32.369 87.129 -32.359 93.325 -32.36 99.521 C-32.362 105.504 -32.351 111.488 -32.335 117.472 C-32.328 120.008 -32.324 122.544 -32.323 125.08 C-32.319 128.627 -32.301 132.173 -32.28 135.72 C-32.281 136.762 -32.282 137.803 -32.282 138.877 C-32.187 149.735 -29.866 157.793 -22.356 165.895 C-13.294 174.263 -3.067 175.279 8.767 175.311 C9.839 175.317 10.912 175.324 12.017 175.331 C15.558 175.35 19.099 175.362 22.64 175.372 C23.854 175.376 25.068 175.38 26.318 175.384 C32.746 175.405 39.173 175.419 45.601 175.429 C52.216 175.44 58.83 175.474 65.445 175.514 C70.552 175.54 75.659 175.549 80.767 175.552 C83.204 175.557 85.641 175.569 88.078 175.587 C111.13 176.024 111.13 176.024 130.917 165.27 C139.502 156.509 140.312 146.603 140.301 134.806 C140.308 133.709 140.315 132.612 140.322 131.481 C140.341 127.877 140.345 124.273 140.347 120.669 C140.353 118.15 140.36 115.631 140.367 113.112 C140.379 107.84 140.383 102.569 140.381 97.298 C140.38 91.227 140.401 85.157 140.433 79.086 C140.462 73.218 140.469 67.349 140.468 61.481 C140.471 58.997 140.479 56.512 140.495 54.028 C140.515 50.549 140.509 47.07 140.497 43.591 C140.508 42.575 140.519 41.559 140.531 40.513 C140.436 29.622 136.795 22.064 129.304 14.267 C120.784 6.342 110.661 5.833 99.515 5.843 C98.4 5.836 97.285 5.83 96.136 5.823 C92.472 5.804 88.808 5.8 85.144 5.798 C82.582 5.791 80.021 5.785 77.459 5.778 C72.098 5.766 66.737 5.762 61.376 5.763 C55.204 5.764 49.032 5.743 42.86 5.712 C36.893 5.682 30.925 5.675 24.957 5.676 C22.432 5.674 19.907 5.665 17.381 5.65 C13.842 5.63 10.304 5.636 6.765 5.648 C5.219 5.631 5.219 5.631 3.641 5.614 C-9.251 5.724 -17.558 10.345 -26.239 19.509 Z " fill="#F8F7F7" transform="translate(120.98921203613281,395.8662872314453)"/>
<path d="M0 0 C4.171 1.816 6.833 4.634 10 7.832 C18.493 13.969 27.176 15.743 37.463 15.647 C38.645 15.656 39.827 15.664 41.045 15.674 C44.916 15.695 48.786 15.681 52.656 15.664 C55.368 15.665 58.08 15.672 60.792 15.679 C66.46 15.688 72.129 15.676 77.797 15.652 C84.321 15.625 90.844 15.633 97.367 15.661 C103.001 15.684 108.634 15.687 114.268 15.674 C117.618 15.666 120.968 15.667 124.319 15.681 C128.059 15.694 131.797 15.675 135.537 15.647 C137.169 15.662 137.169 15.662 138.835 15.678 C147.776 15.556 155.104 12.997 162.721 8.335 C165 7 165 7 167 7 C166.649 7.949 166.299 8.898 165.938 9.875 C164.65 12.871 164.65 12.871 166 15 C165.34 15 164.68 15 164 15 C163.67 15.99 163.34 16.98 163 18 C158.843 21.583 155.533 23.307 150 23 C149.67 22.01 149.34 21.02 149 20 C147.02 20.495 147.02 20.495 145 21 C144.856 21.639 144.711 22.279 144.562 22.938 C144 25 144 25 143 26 C142.34 26.33 141.68 26.66 141 27 C141 26.34 141 25.68 141 25 C140.34 25.66 139.68 26.32 139 27 C139.32 29.603 139.32 29.603 140 32 C139.01 31.67 138.02 31.34 137 31 C132.996 30.866 129.007 30.957 125 31 C124.67 37.6 124.34 44.2 124 51 C123.67 50.34 123.34 49.68 123 49 C121.515 48.505 121.515 48.505 120 48 C120.035 47.336 120.07 46.672 120.105 45.988 C120.369 38.985 120.369 38.985 117 33 C113.276 30.518 110.314 30.457 106 31 C103.509 31.81 101.354 32.823 99 34 C99 32.68 99 31.36 99 30 C93.06 30 87.12 30 81 30 C80.67 32.64 80.34 35.28 80 38 C79.67 38 79.34 38 79 38 C79 35.36 79 32.72 79 30 C77.35 30 75.7 30 74 30 C73.67 34.29 73.34 38.58 73 43 C72.34 43 71.68 43 71 43 C70.773 42.113 70.546 41.226 70.312 40.312 C68.822 36.552 66.984 34.678 64 32 C63.67 31.67 63.34 31.34 63 31 C54.033 30.005 45.056 29.91 36.047 30.062 C33 30 33 30 30 29 C30 29.66 30 30.32 30 31 C26.377 32.208 25.359 31.543 22 30 C22 29.01 22 28.02 22 27 C21.01 27.66 20.02 28.32 19 29 C19 26 19 26 20 24 C19.34 24 18.68 24 18 24 C18 24.66 18 25.32 18 26 C17.01 25.67 16.02 25.34 15 25 C15.33 24.34 15.66 23.68 16 23 C16.66 23 17.32 23 18 23 C18 22.34 18 21.68 18 21 C17.01 21 16.02 21 15 21 C15 21.66 15 22.32 15 23 C14.34 23 13.68 23 13 23 C13 22.01 13 21.02 13 20 C11.68 20.33 10.36 20.66 9 21 C9 20.01 9 19.02 9 18 C7.68 18 6.36 18 5 18 C4.67 17.01 4.34 16.02 4 15 C4.66 15 5.32 15 6 15 C6.33 14.34 6.66 13.68 7 13 C5.68 13.33 4.36 13.66 3 14 C3 12.68 3 11.36 3 10 C1.68 10 0.36 10 -1 10 C-2.158 5.946 -1.837 3.782 0 0 Z M21 22 C20.67 22.66 20.34 23.32 20 24 C20.66 24 21.32 24 22 24 C21.67 23.34 21.34 22.68 21 22 Z M50 30 C50.33 30 50.66 30 51 30 C51 36.93 51 43.86 51 51 C52.32 51 53.64 51 55 51 C55 51.66 55 52.32 55 53 C50.05 52.67 45.1 52.34 40 52 C40 51.67 40 51.34 40 51 C42.97 51 45.94 51 49 51 C48.67 49.68 48.34 48.36 48 47 C44.7 46.67 41.4 46.34 38 46 C38 45.01 38 44.02 38 43 C42.455 42.505 42.455 42.505 47 42 C48.434 38.145 49.117 35.101 49 31 C49.33 30.67 49.66 30.34 50 30 Z M140 32 C140.66 32.66 141.32 33.32 142 34 C141.34 34 140.68 34 140 34 C140 33.34 140 32.68 140 32 Z M142 34 C142.33 34 142.66 34 143 34 C143 35.65 143 37.3 143 39 C142.67 39 142.34 39 142 39 C142 37.35 142 35.7 142 34 Z M129 44 C130.32 44 131.64 44 133 44 C134.812 46.312 134.812 46.312 136 49 C135.67 49.99 135.34 50.98 135 52 C130.982 52.841 127.982 53.054 124 52 C124 51.67 124 51.34 124 51 C125.65 51 127.3 51 129 51 C129 48.69 129 46.38 129 44 Z M118 47 C118.66 47.33 119.32 47.66 120 48 C118.515 48.99 118.515 48.99 117 50 C117.33 49.01 117.66 48.02 118 47 Z " fill="#AE3F4A" transform="translate(88,560)"/>
<path d="M0 0 C76.23 0 152.46 0 231 0 C231 20.79 231 41.58 231 63 C154.77 63 78.54 63 0 63 C0 42.21 0 21.42 0 0 Z M3 3 C3 21.81 3 40.62 3 60 C77.58 60 152.16 60 229 60 C229 41.19 229 22.38 229 3 C154.42 3 79.84 3 3 3 Z " fill="#EBD7D9" transform="translate(653,642)"/>
<path d="M0 0 C2.562 1.562 2.562 1.562 4 3 C4.33 2.01 4.66 1.02 5 0 C8.3 0 11.6 0 15 0 C15.074 5.302 15.129 10.603 15.165 15.906 C15.18 17.708 15.2 19.51 15.226 21.312 C15.263 23.909 15.28 26.505 15.293 29.102 C15.308 29.902 15.324 30.702 15.34 31.527 C15.341 36.434 14.702 39.741 12 44 C7.07 48.449 4.36 49.172 -2.25 49.25 C-3.555 49.276 -4.859 49.302 -6.203 49.328 C-10.939 48.919 -14.131 47.433 -17.875 44.562 C-19 43 -19 43 -19 39 C-17.566 38.75 -16.127 38.526 -14.688 38.312 C-13.887 38.185 -13.086 38.057 -12.262 37.926 C-10 38 -10 38 -8.422 39.457 C-7.718 40.221 -7.718 40.221 -7 41 C-3.396 41.393 -0.903 41.393 2.438 39.938 C4.766 37.05 4.271 34.584 4 31 C3.402 31.474 2.804 31.949 2.188 32.438 C-1.786 35.276 -5.226 35.548 -10 35 C-14.559 32.733 -18.01 29.876 -20 25.125 C-22.009 18.206 -21.56 12.482 -18.387 6.059 C-13.874 -0.64 -7.543 -2.267 0 0 Z " fill="#F8F7F7" transform="translate(915,481)"/>
<path d="M0 0 C4.87 2.389 7.319 5.333 10 10 C12.138 16.414 11.579 23.136 8.914 29.312 C7.117 32.629 5.009 34.439 1.75 36.25 C-1.838 37.228 -5.335 37.819 -9 37 C-10.65 35.68 -12.3 34.36 -14 33 C-14.33 38.61 -14.66 44.22 -15 50 C-18.3 50 -21.6 50 -25 50 C-25 33.83 -25 17.66 -25 1 C-22.03 1 -19.06 1 -16 1 C-16 2.32 -16 3.64 -16 5 C-15.34 5 -14.68 5 -14 5 C-14 4.34 -14 3.68 -14 3 C-9.738 -0.575 -5.313 -0.835 0 0 Z " fill="#F9F7F7" transform="translate(460,400)"/>
<path d="M0 0 C3.3 0 6.6 0 10 0 C10 16.17 10 32.34 10 49 C7.03 49 4.06 49 1 49 C0.67 47.68 0.34 46.36 0 45 C-0.619 45.639 -1.237 46.279 -1.875 46.938 C-5.37 50.33 -7.976 50.342 -12.68 50.281 C-16.28 49.845 -18.315 48.365 -21 46 C-25.052 40.501 -26.585 34.785 -26 28 C-24.471 21.742 -21.769 17.296 -16.121 13.855 C-13.647 12.858 -12.135 12.876 -9.5 13.188 C-8.747 13.264 -7.994 13.34 -7.219 13.418 C-5 14 -5 14 -1 17 C-0.67 11.39 -0.34 5.78 0 0 Z " fill="#F8F6F6" transform="translate(814,467)"/>
<path d="M0 0 C2.75 1.375 2.75 1.375 5 3 C5.99 3.66 6.98 4.32 8 5 C8.784 4.361 9.567 3.721 10.375 3.062 C14.464 -0.15 16.774 -0.436 22 0 C26.451 2.311 28.811 4.52 31 9 C31.341 12.046 31.341 12.046 31.293 15.395 C31.278 17.198 31.278 17.198 31.264 19.037 C31.239 20.283 31.213 21.529 31.188 22.812 C31.167 24.71 31.167 24.71 31.146 26.646 C31.111 29.765 31.062 32.882 31 36 C27.7 36 24.4 36 21 36 C20.97 34.925 20.97 34.925 20.94 33.829 C20.845 30.594 20.735 27.359 20.625 24.125 C20.594 22.997 20.563 21.869 20.531 20.707 C20.473 19.092 20.473 19.092 20.414 17.445 C20.383 16.45 20.351 15.455 20.319 14.43 C20.228 11.821 20.228 11.821 18 10 C13.926 9.521 13.926 9.521 10.341 11.187 C8.536 13.627 8.572 15.306 8.488 18.324 C8.453 19.352 8.417 20.38 8.381 21.439 C8.358 22.511 8.336 23.583 8.312 24.688 C8.278 25.771 8.244 26.854 8.209 27.971 C8.126 30.647 8.057 33.323 8 36 C5.03 36 2.06 36 -1 36 C-1.02 35.283 -1.04 34.567 -1.06 33.829 C-1.155 30.594 -1.265 27.359 -1.375 24.125 C-1.406 22.997 -1.437 21.869 -1.469 20.707 C-1.507 19.631 -1.546 18.554 -1.586 17.445 C-1.633 15.953 -1.633 15.953 -1.681 14.43 C-1.772 11.821 -1.772 11.821 -4 10 C-8.053 9.655 -9.548 9.698 -13 12 C-13.51 14.514 -13.51 14.514 -13.512 17.445 C-13.547 18.522 -13.583 19.598 -13.619 20.707 C-13.653 22.399 -13.653 22.399 -13.688 24.125 C-13.722 25.261 -13.756 26.396 -13.791 27.566 C-13.874 30.378 -13.943 33.188 -14 36 C-17.3 36 -20.6 36 -24 36 C-24 24.45 -24 12.9 -24 1 C-20.7 1 -17.4 1 -14 1 C-13.67 1.99 -13.34 2.98 -13 4 C-12.154 3.34 -11.309 2.68 -10.438 2 C-6.473 -0.306 -4.51 -0.574 0 0 Z " fill="#F8F7F7" transform="translate(504,480)"/>
<path d="M0 0 C3.387 3.002 4.905 5.304 6.75 9.438 C6.75 10.757 6.75 12.077 6.75 13.438 C3.043 13.721 -0.553 13.898 -4.25 13.438 C-6.25 11 -6.25 11 -7.25 8.438 C-10.78 7.261 -13.545 7.239 -17.25 7.438 C-18.24 8.098 -19.23 8.757 -20.25 9.438 C-20.302 11.86 -20.302 11.86 -19.25 14.438 C-15.217 16.717 -11.161 17.734 -6.688 18.875 C-1.093 20.348 2.379 22.224 6.625 26.188 C8.314 29.566 8.278 32.781 7.75 36.438 C5.621 41.811 3.477 44.589 -1.688 47.125 C-8.69 49.545 -16.29 49.56 -23.188 46.812 C-27.377 44.646 -29.738 42.441 -32.25 38.438 C-33.062 34.562 -33.062 34.562 -33.25 31.438 C-29.62 31.438 -25.99 31.438 -22.25 31.438 C-21.59 33.087 -20.93 34.738 -20.25 36.438 C-17.011 38.597 -16.001 38.71 -12.25 38.688 C-10.951 38.695 -10.951 38.695 -9.625 38.703 C-6.984 38.592 -6.984 38.592 -4.25 36.438 C-4.198 34.015 -4.198 34.015 -5.25 31.438 C-8.576 29.548 -11.75 28.578 -15.43 27.543 C-26.625 24.357 -26.625 24.357 -30.25 19.438 C-32.132 15.674 -31.898 11.526 -31.25 7.438 C-25.704 -2.781 -10.037 -5.106 0 0 Z " fill="#F9F7F7" transform="translate(385.25,468.5625)"/>
<path d="M0 0 C11.55 0 23.1 0 35 0 C35 2.97 35 5.94 35 9 C26.75 9 18.5 9 10 9 C10 12.63 10 16.26 10 20 C17.59 20 25.18 20 33 20 C33 22.64 33 25.28 33 28 C25.41 28 17.82 28 10 28 C10 31.96 10 35.92 10 40 C18.25 40 26.5 40 35 40 C35 42.97 35 45.94 35 49 C23.45 49 11.9 49 0 49 C0 32.83 0 16.66 0 0 Z " fill="#F9F9F9" transform="translate(355,387)"/>
<path d="M0 0 C4.542 2.657 7.946 6.205 10.312 10.938 C11.009 17.163 11.525 23.178 7.812 28.5 C3.201 33.596 -1.766 36.073 -8.625 36.562 C-14.459 36.31 -18.437 33.802 -22.688 29.938 C-26.468 25.241 -26.187 19.883 -26.035 14.07 C-25.534 9.558 -24.547 7.474 -21.688 3.938 C-14.755 -1.439 -8.348 -2.405 0 0 Z " fill="#F8F7F7" transform="translate(772.6875,481.0625)"/>
<path d="M0 0 C1.887 1.512 1.887 1.512 3.688 3.688 C4.376 4.512 5.064 5.337 5.773 6.188 C9 10.263 12.19 14.363 15.332 18.504 C18.637 22.854 22.028 27.136 25.421 31.419 C31.007 38.492 31.007 38.492 30.965 41.746 C29.689 46.047 27.444 48.69 24.562 52.062 C23.466 53.387 22.371 54.713 21.277 56.039 C20.727 56.701 20.176 57.362 19.609 58.044 C17.213 60.957 14.915 63.941 12.625 66.938 C12.213 67.47 11.801 68.002 11.376 68.55 C9.608 70.841 7.903 73.145 6.293 75.551 C2.829 80.696 2.829 80.696 0.082 81.703 C-1.875 82 -1.875 82 -5 82 C-6.625 79.812 -6.625 79.812 -8 77 C-6.779 71.767 -2.896 67.986 0.5 64 C1.765 62.492 3.028 60.983 4.289 59.473 C4.915 58.724 5.54 57.975 6.185 57.204 C10.267 52.248 14.133 47.124 18 42 C16.686 39.177 15.222 36.861 13.242 34.461 C12.703 33.803 12.163 33.144 11.607 32.466 C11.035 31.776 10.464 31.086 9.875 30.375 C8.698 28.94 7.521 27.505 6.344 26.07 C5.771 25.375 5.199 24.679 4.609 23.962 C2.513 21.406 0.44 18.832 -1.625 16.25 C-2.215 15.513 -2.806 14.775 -3.414 14.016 C-4.199 13.018 -4.199 13.018 -5 12 C-5.557 11.305 -6.114 10.61 -6.688 9.895 C-8.412 7.405 -8.457 5.969 -8 3 C-5.826 -0.318 -3.8 -0.442 0 0 Z " fill="#FAFAFA" transform="translate(216,444)"/>
<path d="M0 0 C3.846 2.474 7.002 5.662 8.309 10.117 C8.594 12.043 8.594 12.043 8.719 15.105 C5.319 15.456 2.104 15.643 -1.281 15.105 C-3.781 12.168 -3.781 12.168 -5.281 9.105 C-8.986 7.253 -13.237 7.647 -17.281 8.105 C-21.441 10.445 -22.825 12.66 -24.281 17.105 C-24.632 20.059 -24.632 20.059 -24.594 23.105 C-24.611 24.116 -24.627 25.127 -24.645 26.168 C-24.233 29.499 -23.107 31.331 -21.281 34.105 C-21.281 34.765 -21.281 35.425 -21.281 36.105 C-17.082 38.205 -12.909 39.009 -8.281 38.105 C-4.759 36.132 -2.581 34.005 -1.281 30.105 C2.019 30.105 5.319 30.105 8.719 30.105 C8.282 35.564 7.394 38.983 3.719 43.105 C-2.49 47.643 -8.541 48.908 -16.156 48.594 C-22.191 47.651 -26.39 44.997 -30.656 40.73 C-34.289 34.863 -35.802 30.082 -35.656 23.168 C-35.645 22.464 -35.633 21.759 -35.621 21.033 C-35.42 14.658 -34.951 10.001 -30.477 5.148 C-22.122 -2.591 -10.708 -4.832 0 0 Z " fill="#F9F8F8" transform="translate(732.28125,468.89453125)"/>
<path d="M0 0 C2.75 0.562 2.75 0.562 4.75 2.562 C5.378 6.576 5.027 8.161 2.695 11.535 C1.769 12.577 0.828 13.607 -0.125 14.625 C-1.137 15.759 -2.146 16.896 -3.152 18.035 C-3.668 18.614 -4.183 19.193 -4.714 19.79 C-7.164 22.618 -9.429 25.58 -11.688 28.562 C-14.498 32.267 -17.33 35.944 -20.25 39.562 C-18.808 44.001 -16.363 47.066 -13.312 50.5 C-8.6 55.926 -4.103 61.483 0.308 67.156 C2.419 69.954 2.419 69.954 4.75 72.562 C4.938 76 4.938 76 4.75 79.562 C2.75 81.562 2.75 81.562 -0.109 81.98 C-3.25 81.562 -3.25 81.562 -5.453 79.613 C-6.129 78.71 -6.804 77.806 -7.5 76.875 C-8.271 75.867 -9.042 74.859 -9.836 73.82 C-10.233 73.284 -10.629 72.748 -11.038 72.196 C-12.625 70.057 -14.258 67.953 -15.89 65.849 C-16.717 64.779 -17.538 63.704 -18.354 62.626 C-20.616 59.638 -22.936 56.727 -25.363 53.871 C-25.876 53.256 -26.388 52.641 -26.917 52.007 C-27.907 50.823 -28.912 49.651 -29.935 48.495 C-32.308 45.623 -33.234 43.874 -33.422 40.125 C-31.898 35.491 -29.494 32.57 -26.312 28.938 C-25.123 27.531 -23.936 26.124 -22.75 24.715 C-22.158 24.019 -21.567 23.322 -20.957 22.605 C-18.48 19.641 -16.143 16.58 -13.812 13.5 C-12.616 11.945 -12.616 11.945 -11.395 10.359 C-10.085 8.652 -8.788 6.935 -7.512 5.203 C-5.13 2.126 -3.915 0.678 0 0 Z " fill="#F9FAFA" transform="translate(136.25,444.4375)"/>
<path d="M0 0 C2.162 1.585 3.32 2.966 4.727 5.266 C5.159 8.29 5.159 8.29 5.238 11.781 C5.274 13.032 5.309 14.282 5.346 15.57 C5.38 17.523 5.38 17.523 5.414 19.516 C5.448 20.833 5.482 22.15 5.518 23.508 C5.6 26.76 5.669 30.013 5.727 33.266 C2.427 33.266 -0.873 33.266 -4.273 33.266 C-4.273 31.946 -4.273 30.626 -4.273 29.266 C-4.933 29.266 -5.593 29.266 -6.273 29.266 C-6.603 30.256 -6.933 31.246 -7.273 32.266 C-11.321 34.596 -15.707 35.007 -20.273 34.266 C-24.026 32.251 -25.91 30.811 -28.273 27.266 C-28.719 23.253 -28.721 21.023 -26.648 17.516 C-20.346 11.545 -13.585 11.623 -5.273 11.266 C-5.933 9.616 -6.593 7.966 -7.273 6.266 C-8.552 6.204 -9.831 6.142 -11.148 6.078 C-11.868 6.043 -12.587 6.009 -13.328 5.973 C-14.291 6.118 -14.291 6.118 -15.273 6.266 C-16.263 7.751 -16.263 7.751 -17.273 9.266 C-19.438 9.559 -19.438 9.559 -21.898 9.453 C-22.716 9.426 -23.533 9.399 -24.375 9.371 C-25.001 9.336 -25.628 9.301 -26.273 9.266 C-26.016 5.485 -25.749 3.741 -23.023 1.016 C-15.274 -3.916 -8.156 -4.229 0 0 Z " fill="#F8F6F6" transform="translate(466.2734375,482.734375)"/>
<path d="M0 0 C4.158 2.929 7.002 5.928 8.551 10.863 C8.551 13.833 8.551 16.803 8.551 19.863 C0.301 19.863 -7.949 19.863 -16.449 19.863 C-14.909 24.666 -14.909 24.666 -12.449 26.863 C-7.664 27.422 -7.664 27.422 -3.551 25.355 C-0.909 23.48 0.602 23.55 3.801 23.676 C4.693 23.703 5.585 23.73 6.504 23.758 C7.179 23.793 7.855 23.827 8.551 23.863 C7.113 28.897 4.648 30.853 0.551 33.863 C-5.1 35.747 -11.974 35.856 -17.719 34.215 C-21.267 32.406 -24.012 29.757 -25.781 26.18 C-27.533 20.104 -27.897 13.135 -25.309 7.285 C-19.53 -0.927 -9.459 -4.39 0 0 Z " fill="#F7F6F6" transform="translate(590.44921875,401.13671875)"/>
<path d="M0 0 C4.485 1.716 6.508 4.174 8.938 8.25 C10 12 10 12 10 21 C2.08 21 -5.84 21 -14 21 C-13.34 22.98 -12.68 24.96 -12 27 C-9.528 28.236 -8.227 27.984 -5.5 27.688 C-4.706 27.609 -3.912 27.53 -3.094 27.449 C-0.791 27.153 -0.791 27.153 1 25 C3.164 24.805 3.164 24.805 5.625 24.875 C6.851 24.902 6.851 24.902 8.102 24.93 C9.041 24.964 9.041 24.964 10 25 C8.759 29.966 7.333 32.242 3 35 C-2.284 37.349 -7.551 38.007 -13.113 36.383 C-17.665 34.446 -20.755 31.894 -23.145 27.539 C-25.205 21.423 -25.54 14.36 -22.82 8.426 C-16.853 0.062 -9.912 -1.282 0 0 Z " fill="#F8F6F6" transform="translate(711,400)"/>
<path d="M0 0 C3.098 2.796 5.687 5.562 7.562 9.312 C7.562 12.613 7.562 15.913 7.562 19.312 C-0.688 19.312 -8.938 19.312 -17.438 19.312 C-15.271 25.146 -15.271 25.146 -12.438 26.312 C-8.166 26.77 -8.166 26.77 -4.57 24.777 C-1.814 22.884 -0.446 23.153 2.812 23.625 C3.705 23.745 4.597 23.865 5.516 23.988 C6.191 24.095 6.867 24.202 7.562 24.312 C5.725 28.058 4.399 30.647 1.125 33.25 C-5.375 35.189 -13.288 35.901 -19.5 32.688 C-23.989 29.058 -27.041 24.97 -27.676 19.113 C-27.858 12.999 -27.192 8.284 -23.438 3.312 C-16.576 -2.149 -8.08 -3.967 0 0 Z " fill="#F8F7F7" transform="translate(503.4375,401.6875)"/>
<path d="M0 0 C5.347 2.312 8.162 5.171 10.828 10.336 C10.828 13.636 10.828 16.936 10.828 20.336 C2.578 20.336 -5.672 20.336 -14.172 20.336 C-12.005 26.169 -12.005 26.169 -9.172 27.336 C-3.842 27.677 -3.842 27.677 0.828 25.336 C3.309 25.141 3.309 25.141 6.016 25.211 C6.917 25.229 7.818 25.247 8.746 25.266 C9.433 25.289 10.12 25.312 10.828 25.336 C9.205 30.647 6.365 32.887 1.641 35.586 C-3.432 36.939 -8.496 37.402 -13.457 35.426 C-17.99 32.791 -20.615 29.995 -23.172 25.336 C-23.703 21.68 -23.703 21.68 -23.672 17.836 C-23.687 15.933 -23.687 15.933 -23.703 13.992 C-22.983 9.035 -21.008 6.027 -17.348 2.656 C-11.553 -1.061 -6.661 -2.037 0 0 Z " fill="#F8F7F8" transform="translate(422.171875,480.6640625)"/>
<path d="M0 0 C4.693 2.657 7.568 5.643 9.312 10.875 C9.312 13.845 9.312 16.815 9.312 19.875 C1.062 19.875 -7.188 19.875 -15.688 19.875 C-14.037 23.627 -14.037 23.627 -11.688 26.875 C-6.526 27.307 -6.526 27.307 -1.723 25.871 C0.709 24.681 2.373 24.671 5.062 24.75 C5.862 24.768 6.661 24.786 7.484 24.805 C8.088 24.828 8.691 24.851 9.312 24.875 C7.919 29.751 5.374 31.951 1.312 34.875 C-3.883 36.564 -9.852 36.998 -14.977 34.969 C-19.416 32.375 -22.661 29.687 -24.688 24.875 C-25.384 18.838 -25.929 12.303 -23.062 6.75 C-16.811 -0.818 -9.215 -2.812 0 0 Z " fill="#F9F8F8" transform="translate(586.6875,481.125)"/>
<path d="M0 0 C2.938 0.438 2.938 0.438 4.938 2.438 C6.727 6.342 8.29 10.322 9.875 14.312 C13.225 22.88 13.225 22.88 17.5 31 C19.977 35.2 21.4 39.826 22.938 44.438 C18.977 44.438 15.017 44.438 10.938 44.438 C9.266 40.815 7.6 37.189 5.938 33.562 C5.461 32.53 4.984 31.497 4.492 30.434 C4.041 29.447 3.59 28.461 3.125 27.445 C2.706 26.534 2.287 25.623 1.855 24.684 C0.938 22.438 0.938 22.438 0.938 20.438 C0.278 20.438 -0.382 20.438 -1.062 20.438 C-1.588 22.201 -1.588 22.201 -2.125 24 C-4.462 31.079 -7.837 37.731 -11.062 44.438 C-15.023 44.438 -18.982 44.438 -23.062 44.438 C-20.669 36.273 -16.953 28.961 -13.062 21.438 C-10.988 17.426 -9.038 13.501 -7.5 9.25 C-4.298 0.614 -4.298 0.614 0 0 Z " fill="#F8F9F9" transform="translate(175.0625,480.5625)"/>
<path d="M0 0 C4.781 1.747 6.808 3.442 9 8 C9.341 11.138 9.341 11.138 9.293 14.613 C9.278 16.484 9.278 16.484 9.264 18.393 C9.239 19.686 9.213 20.98 9.188 22.312 C9.167 24.282 9.167 24.282 9.146 26.291 C9.111 29.528 9.062 32.764 9 36 C5.7 36 2.4 36 -1 36 C-1.02 35.283 -1.04 34.567 -1.06 33.829 C-1.155 30.594 -1.265 27.359 -1.375 24.125 C-1.406 22.997 -1.437 21.869 -1.469 20.707 C-1.507 19.631 -1.546 18.554 -1.586 17.445 C-1.633 15.953 -1.633 15.953 -1.681 14.43 C-1.772 11.821 -1.772 11.821 -4 10 C-7.5 9.667 -7.5 9.667 -11 10 C-13.601 12.601 -13.3 13.821 -13.414 17.445 C-13.472 19.06 -13.472 19.06 -13.531 20.707 C-13.562 21.835 -13.593 22.963 -13.625 24.125 C-13.683 25.828 -13.683 25.828 -13.742 27.566 C-13.837 30.377 -13.919 33.189 -14 36 C-17.63 36 -21.26 36 -25 36 C-25 24.45 -25 12.9 -25 1 C-21.7 1 -18.4 1 -15 1 C-14.67 2.32 -14.34 3.64 -14 5 C-13.216 4.361 -12.433 3.721 -11.625 3.062 C-7.522 -0.161 -5.235 -0.349 0 0 Z " fill="#F7F3F4" transform="translate(878,480)"/>
<path d="M0 0 C0.66 0 1.32 0 2 0 C2.51 1.178 2.51 1.178 3.031 2.379 C8.053 13.264 13.788 18.822 25 23 C25 23.66 25 24.32 25 25 C24.359 25.208 23.719 25.415 23.059 25.629 C13.504 29.032 8.635 34.102 3.945 42.984 C2.894 45.125 2.894 45.125 2 48 C1.34 48 0.68 48 0 48 C-0.208 47.359 -0.415 46.719 -0.629 46.059 C-4.012 36.56 -8.467 32.095 -17.438 27.562 C-19.285 26.694 -21.137 25.835 -23 25 C-23 24.34 -23 23.68 -23 23 C-22.215 22.66 -21.43 22.319 -20.621 21.969 C-9.736 16.947 -4.178 11.212 0 0 Z " fill="#DBA7AC" transform="translate(967,944)"/>
<path d="M0 0 C3.117 1.696 5.389 3.779 7 7 C7.086 9.178 7.107 11.359 7.098 13.539 C7.094 14.841 7.091 16.143 7.088 17.484 C7.08 18.865 7.071 20.245 7.062 21.625 C7.057 23.013 7.053 24.401 7.049 25.789 C7.037 29.193 7.021 32.596 7 36 C3.7 36 0.4 36 -3 36 C-3.025 35.283 -3.05 34.567 -3.076 33.829 C-3.192 30.594 -3.315 27.359 -3.438 24.125 C-3.477 22.997 -3.516 21.869 -3.557 20.707 C-3.599 19.631 -3.64 18.554 -3.684 17.445 C-3.72 16.45 -3.757 15.455 -3.795 14.43 C-3.85 11.992 -3.85 11.992 -5 10 C-9.01 9.821 -9.01 9.821 -13 10 C-15.601 12.601 -15.3 13.821 -15.414 17.445 C-15.472 19.06 -15.472 19.06 -15.531 20.707 C-15.562 21.835 -15.593 22.963 -15.625 24.125 C-15.683 25.828 -15.683 25.828 -15.742 27.566 C-15.837 30.377 -15.922 33.188 -16 36 C-19.3 36 -22.6 36 -26 36 C-26 24.45 -26 12.9 -26 1 C-22.7 1 -19.4 1 -16 1 C-15.67 1.99 -15.34 2.98 -15 4 C-14.072 3.01 -14.072 3.01 -13.125 2 C-8.764 -0.791 -5.051 -0.96 0 0 Z " fill="#F8F6F6" transform="translate(632,400)"/>
<path d="M0 0 C4.555 2.51 4.555 2.51 6.062 4.688 C6.75 7.375 6.75 7.375 7.062 9.688 C1.516 10.007 -1.474 10.143 -5.938 6.688 C-8.656 6.418 -11.196 6.55 -13.938 6.688 C-13.607 8.007 -13.278 9.327 -12.938 10.688 C-11.913 10.93 -10.888 11.172 -9.832 11.422 C-8.471 11.76 -7.111 12.098 -5.75 12.438 C-5.076 12.595 -4.403 12.752 -3.709 12.914 C0.745 14.044 3.741 15.51 7.062 18.688 C8.496 21.554 8.369 23.501 8.062 26.688 C6.21 30.625 4.399 32.855 0.438 34.562 C-5.932 36.54 -12.232 36.773 -18.375 34 C-21.671 32.122 -23.469 30.267 -24.938 26.688 C-24.938 25.697 -24.938 24.707 -24.938 23.688 C-21.903 23.454 -18.964 23.329 -15.938 23.688 C-14.564 24.98 -13.227 26.312 -11.938 27.688 C-7.281 28.107 -7.281 28.107 -2.938 26.688 C-3.268 25.368 -3.597 24.048 -3.938 22.688 C-5.241 22.45 -5.241 22.45 -6.57 22.207 C-18.813 19.728 -18.813 19.728 -22.938 14.688 C-24.349 10.374 -24.347 8.538 -22.375 4.438 C-16.499 -2.192 -8.119 -3.251 0 0 Z " fill="#F8F5F6" transform="translate(663.9375,481.3125)"/>
<path d="M0 0 C3.613 1.522 5.643 3.404 7.688 6.812 C7.688 7.803 7.688 8.793 7.688 9.812 C6.251 9.894 4.813 9.952 3.375 10 C2.574 10.035 1.774 10.07 0.949 10.105 C-1.843 9.744 -2.416 8.792 -4.312 6.812 C-7.938 6.562 -7.938 6.562 -11.312 6.812 C-11.643 8.132 -11.972 9.452 -12.312 10.812 C-11.132 11.115 -9.951 11.418 -8.734 11.73 C-7.177 12.153 -5.62 12.576 -4.062 13 C-3.285 13.197 -2.508 13.393 -1.707 13.596 C3.209 14.961 5.996 16.201 8.688 20.812 C9.263 24.838 9.14 26.983 7.188 30.562 C1.959 35.268 -3.917 36.392 -10.844 36.168 C-14.755 35.605 -18.206 34.279 -21.312 31.812 C-23.264 28.786 -23.312 27.598 -23.312 23.812 C-20.278 23.579 -17.339 23.454 -14.312 23.812 C-12.939 25.105 -11.602 26.437 -10.312 27.812 C-6.645 28.147 -6.645 28.147 -3.312 27.812 C-2.982 26.493 -2.653 25.173 -2.312 23.812 C-3.666 23.352 -5.02 22.894 -6.375 22.438 C-7.195 22.159 -8.015 21.881 -8.859 21.594 C-11.515 20.711 -11.515 20.711 -15.125 19.938 C-19.039 18.556 -20.333 17.455 -22.312 13.812 C-22.916 10.999 -22.977 8.618 -22.312 5.812 C-16.374 -1.776 -8.897 -2.927 0 0 Z " fill="#F8F7F7" transform="translate(625.3125,481.1875)"/>
<path d="M0 0 C3.562 1.812 3.562 1.812 6 4 C6.598 4.454 7.196 4.908 7.812 5.375 C9.551 7.753 9.68 10.121 10 13 C8.397 13.108 6.793 13.186 5.188 13.25 C4.294 13.296 3.401 13.343 2.48 13.391 C0 13 0 13 -1.641 11.012 C-2.089 10.348 -2.538 9.684 -3 9 C-6.293 8.51 -8.219 8.585 -11.172 10.152 C-13.269 11.909 -13.269 11.909 -13.426 14.812 C-13.388 15.864 -13.351 16.916 -13.312 18 C-13.288 19.052 -13.264 20.104 -13.238 21.188 C-13.104 24.079 -13.104 24.079 -12 27 C-10.542 27.027 -9.083 27.046 -7.625 27.062 C-6.407 27.08 -6.407 27.08 -5.164 27.098 C-2.951 27.145 -2.951 27.145 -1 26 C-0.67 25.01 -0.34 24.02 0 23 C3.3 23 6.6 23 10 23 C9.727 26.914 9.25 28.703 6.688 31.75 C1.112 36.418 -3.387 36.505 -10.574 36.363 C-14.464 35.951 -16.765 35.35 -19.664 32.738 C-23.601 27.616 -25.389 22.202 -25 15.75 C-24.104 10.032 -21.717 6.55 -17.438 2.688 C-12.166 -0.962 -6.186 -0.606 0 0 Z " fill="#F9F7F7" transform="translate(671,400)"/>
<path d="M0 0 C3.773 -0.476 7.25 -0.718 11 0 C12.951 1.959 13.946 3.748 15.098 6.25 C15.395 6.827 15.693 7.405 16 8 C16.66 8 17.32 8 18 8 C18.704 6.686 19.363 5.348 20 4 C21.293 1.781 21.293 1.781 23 0 C26.425 -0.713 29.551 -0.482 33 0 C31.567 3.959 29.669 7.287 27.375 10.812 C26.743 11.788 26.112 12.764 25.461 13.77 C24.979 14.506 24.497 15.242 24 16 C27.908 23.447 27.908 23.447 32.375 30.562 C34 33 34 33 34 35 C30.37 35 26.74 35 23 35 C18 26.25 18 26.25 18 24 C14.33 27.277 12.307 30.715 10 35 C6.37 35 2.74 35 -1 35 C1.158 29.605 4.019 25.604 7.418 20.938 C9.198 18.192 9.198 18.192 8.992 15.516 C7.706 12.255 5.943 9.622 3.938 6.75 C0 1.076 0 1.076 0 0 Z " fill="#F8F7F7" transform="translate(395,401)"/>
<path d="M0 0 C93.39 0 186.78 0 283 0 C283 0.33 283 0.66 283 1 C274.185 1.784 265.44 2.166 256.592 2.221 C255.311 2.233 254.031 2.244 252.711 2.256 C249.21 2.287 245.709 2.312 242.208 2.336 C239.218 2.357 236.229 2.381 233.239 2.405 C223.52 2.482 213.801 2.546 204.082 2.609 C201.566 2.625 199.051 2.642 196.535 2.659 C150.145 2.974 103.765 3.071 57.375 2.625 C56.209 2.614 55.042 2.604 53.841 2.593 C47.198 2.531 40.555 2.464 33.913 2.387 C31.942 2.364 29.97 2.342 27.999 2.321 C9.254 2.119 9.254 2.119 0 1 C0 0.67 0 0.34 0 0 Z " fill="#AC3B47" transform="translate(352,705)"/>
<path d="M0 0 C3.3 0 6.6 0 10 0 C10 16.17 10 32.34 10 49 C6.7 49 3.4 49 0 49 C0 32.83 0 16.66 0 0 Z " fill="#F9F8F8" transform="translate(544,467)"/>
<path d="M0 0 C0.887 0.103 1.774 0.206 2.688 0.312 C2.688 3.283 2.688 6.252 2.688 9.312 C1.079 9.405 1.079 9.405 -0.562 9.5 C-4.296 9.998 -4.296 9.998 -6.5 12.188 C-9.141 16.741 -8.986 20.946 -9.062 26.125 C-9.092 27.104 -9.122 28.083 -9.152 29.092 C-9.223 31.498 -9.27 33.905 -9.312 36.312 C-12.612 36.312 -15.913 36.312 -19.312 36.312 C-19.312 24.762 -19.312 13.212 -19.312 1.312 C-16.013 1.312 -12.712 1.312 -9.312 1.312 C-8.982 2.632 -8.653 3.952 -8.312 5.312 C-7.611 4.488 -6.91 3.663 -6.188 2.812 C-3.312 0.312 -3.312 0.312 0 0 Z " fill="#F7F5F5" transform="translate(537.3125,399.6875)"/>
<path d="M0 0 C3.511 0.063 4.525 0.499 7.75 2.375 C10.518 5.616 11.266 7.3 11.484 11.449 C11.138 15.328 9.17 17.487 6.562 20.188 C3.311 21.904 0.938 21.757 -2.688 21.375 C-6.226 19.724 -7.498 18.659 -9.688 15.375 C-10.233 12.31 -10.236 9.44 -9.688 6.375 C-7.25 3.375 -7.25 3.375 -4.688 1.375 C-3.688 0.375 -3.688 0.375 0 0 Z " fill="#F4F0F1" transform="translate(197.6875,589.625)"/>
<path d="M0 0 C3.3 0 6.6 0 10 0 C10 11.55 10 23.1 10 35 C6.7 35 3.4 35 0 35 C0 23.45 0 11.9 0 0 Z " fill="#F8F6F7" transform="translate(834,481)"/>
<path d="M0 0 C3.3 0 6.6 0 10 0 C10 11.55 10 23.1 10 35 C6.7 35 3.4 35 0 35 C0 23.45 0 11.9 0 0 Z " fill="#F8F6F6" transform="translate(546,401)"/>
<path d="M0 0 C11.166 -0.491 11.166 -0.491 15.188 1.875 C17.997 5.168 18.436 7.588 18.316 11.957 C18 14 18 14 16.312 17 C11.003 20.206 6.121 19.309 0 19 C0 12.73 0 6.46 0 0 Z " fill="#F7F7F7" transform="translate(140,591)"/>
<path d="M0 0 C1.058 -0.037 2.117 -0.075 3.207 -0.113 C6.188 0.312 6.188 0.312 8.551 2.113 C10.896 5.265 10.598 7.478 10.188 11.312 C9.188 13.75 9.188 13.75 8.188 15.312 C8.683 15.931 9.178 16.55 9.688 17.188 C11.188 19.312 11.188 19.312 11.188 21.312 C8.938 21.625 8.938 21.625 6.188 21.312 C2.188 17.204 2.188 17.204 2.188 14.312 C0.868 14.312 -0.452 14.312 -1.812 14.312 C-1.812 16.622 -1.812 18.933 -1.812 21.312 C-3.463 21.312 -5.113 21.312 -6.812 21.312 C-6.841 18 -6.859 14.688 -6.875 11.375 C-6.883 10.429 -6.892 9.484 -6.9 8.51 C-6.904 7.611 -6.907 6.712 -6.91 5.785 C-6.915 4.953 -6.921 4.12 -6.926 3.262 C-6.684 -0.892 -3.484 0.08 0 0 Z " fill="#F1E5E7" transform="translate(218.8125,589.6875)"/>
<path d="M0 0 C4.536 1.344 4.536 1.344 6.375 4 C7.902 8.582 8.149 12.416 6 16.812 C4.375 19 4.375 19 2.375 21 C-1.647 21.521 -3.757 21.645 -7.062 19.188 C-9.378 14.463 -9.506 10.16 -8.625 5 C-6.003 0.868 -4.913 0 0 0 Z " fill="#BF4956" transform="translate(765.625,488)"/>
<path d="M0 0 C10.008 -0.603 10.008 -0.603 14.188 1.938 C16.614 6.038 16.958 9.343 16 14 C13.802 17.032 12.55 17.817 9 19 C6.03 19 3.06 19 0 19 C0 12.73 0 6.46 0 0 Z " fill="#1C1B1B" transform="translate(398,663)"/>
<path d="M0 0 C1.65 0 3.3 0 5 0 C5.266 0.626 5.531 1.253 5.805 1.898 C6.158 2.716 6.511 3.533 6.875 4.375 C7.223 5.187 7.571 5.999 7.93 6.836 C8.924 9.138 8.924 9.138 11 11 C12.32 7.7 13.64 4.4 15 1 C16.98 1 18.96 1 21 1 C21 7.27 21 13.54 21 20 C19.68 20 18.36 20 17 20 C16.67 16.37 16.34 12.74 16 9 C14.68 12.63 13.36 16.26 12 20 C10.68 19.67 9.36 19.34 8 19 C6.533 16.103 5.885 13.144 5 10 C4.67 13.3 4.34 16.6 4 20 C2.68 20 1.36 20 0 20 C0 13.4 0 6.8 0 0 Z " fill="#F5F1F2" transform="translate(778,662)"/>
<path d="M0 0 C2.915 2.224 3.839 3.996 4.418 7.605 C4.656 12.366 4.529 15.166 1.938 19.25 C-1 21 -1 21 -4.625 21.062 C-8.396 19.875 -9.092 19.337 -11 16 C-11.661 11.944 -11.602 8.064 -11 4 C-7.926 0.022 -4.931 -0.944 0 0 Z " fill="#C04B59" transform="translate(456,408)"/>
<path d="M0 0 C2.229 2.183 2.934 3.561 3.398 6.656 C3.391 7.595 3.383 8.533 3.375 9.5 C3.383 10.438 3.39 11.377 3.398 12.344 C2.932 15.454 2.265 16.826 0 19 C-2.156 19.531 -2.156 19.531 -4.5 19.5 C-5.273 19.51 -6.047 19.521 -6.844 19.531 C-9 19 -9 19 -10.754 17.312 C-13.027 13.094 -12.614 8.652 -12 4 C-9.174 -1.063 -5.263 -0.668 0 0 Z " fill="#BF4855" transform="translate(811,489)"/>
<path d="M0 0 C3.196 0.182 3.952 0.474 6.562 2.562 C8.495 6.428 8.747 9.325 8.062 13.562 C7 16.5 7 16.5 5.062 18.562 C1.688 19.688 1.688 19.688 -1.938 19.562 C-4.875 17.75 -4.875 17.75 -6.938 14.562 C-7.682 10.165 -7.886 6.24 -5.652 2.289 C-3.938 0.562 -3.938 0.562 0 0 Z " fill="#BF4856" transform="translate(911.9375,488.4375)"/>
<path d="M0 0 C0.99 0 1.98 0 3 0 C3 7.26 3 14.52 3 22 C2.34 22 1.68 22 1 22 C1 21.34 1 20.68 1 20 C0.01 20.66 -0.98 21.32 -2 22 C-5.562 21.812 -5.562 21.812 -9 21 C-11.492 17.263 -11.458 15.427 -11 11 C-9.438 8 -9.438 8 -7 6 C-3.25 6.188 -3.25 6.188 0 7 C0 4.69 0 2.38 0 0 Z " fill="#F3E9EB" transform="translate(545,560)"/>
<path d="M0 0 C1.32 0 2.64 0 4 0 C5.485 -0.124 5.485 -0.124 7 -0.25 C10 0 10 0 12.375 1.5 C14.654 5.006 14.818 7.929 14 12 C12.375 14.5 12.375 14.5 10 16 C6.855 16.315 4.841 16.42 2 15 C2 17.31 2 19.62 2 22 C1.34 22 0.68 22 0 22 C0 14.74 0 7.48 0 0 Z " fill="#F3F0F1" transform="translate(626,566)"/>
<path d="M0 0 C1.65 0 3.3 0 5 0 C6.801 2.188 6.801 2.188 8.312 5 C8.824 5.928 9.336 6.856 9.863 7.812 C10.238 8.534 10.614 9.256 11 10 C11.33 6.7 11.66 3.4 12 0 C13.32 0 14.64 0 16 0 C16 6.27 16 12.54 16 19 C14.68 19 13.36 19 12 19 C10.078 16.594 10.078 16.594 8.25 13.5 C7.636 12.479 7.023 11.458 6.391 10.406 C5.702 9.215 5.702 9.215 5 8 C4.67 11.63 4.34 15.26 4 19 C2.68 19 1.36 19 0 19 C0 12.73 0 6.46 0 0 Z " fill="#171616" transform="translate(535,663)"/>
<path d="M0 0 C2.375 1.562 2.375 1.562 4 4 C4.449 8.191 4.446 11.467 2 15 C-0.889 16.444 -2.796 16.377 -6 16 C-8.938 14 -8.938 14 -11 11 C-11.326 8.113 -10.97 5.732 -10 3 C-7.139 -0.391 -4.285 -0.625 0 0 Z " fill="#F4EFF0" transform="translate(618,566)"/>
<path d="M0 0 C4.937 1.463 4.937 1.463 6.375 4 C7.028 8.411 6.888 10.291 4.25 13.938 C1.375 16 1.375 16 -1.688 16.562 C-4.625 16 -4.625 16 -7 14.438 C-9.275 11.025 -9.26 9.024 -8.625 5 C-5.939 1.093 -4.801 0 0 0 Z " fill="#ECDFE0" transform="translate(507.625,566)"/>
<path d="M0 0 C1.32 0 2.64 0 4 0 C4 6.27 4 12.54 4 19 C2.412 19.062 0.824 19.124 -0.812 19.188 C-2.152 19.24 -2.152 19.24 -3.52 19.293 C-6 19 -6 19 -7.801 17.773 C-9.319 15.528 -9.402 14.132 -9.375 11.438 C-9.383 10.652 -9.39 9.867 -9.398 9.059 C-9.267 8.379 -9.135 7.7 -9 7 C-5.15 4.433 -3.414 5.167 1 6 C0.67 4.02 0.34 2.04 0 0 Z " fill="#181818" transform="translate(520,663)"/>
<path d="M0 0 C8.58 0 17.16 0 26 0 C20.533 5.467 10.723 2.632 3 3 C2.67 22.14 2.34 41.28 2 61 C5.63 61 9.26 61 13 61 C13 61.33 13 61.66 13 62 C8.71 62 4.42 62 0 62 C0 41.54 0 21.08 0 0 Z " fill="#F9FAFA" transform="translate(653,642)"/>
<path d="M0 0 C1.32 0.33 2.64 0.66 4 1 C4.33 0.67 4.66 0.34 5 0 C6.933 0.267 8.866 0.535 10.797 0.816 C13.286 1.107 13.286 1.107 16.875 0.438 C17.906 0.293 18.938 0.149 20 0 C22 2 22 2 22.195 5.258 C22.172 6.534 22.149 7.81 22.125 9.125 C22.107 10.406 22.089 11.688 22.07 13.008 C22.047 13.995 22.024 14.983 22 16 C21.01 16 20.02 16 19 16 C19 11.71 19 7.42 19 3 C17.35 3.33 15.7 3.66 14 4 C13.67 7.96 13.34 11.92 13 16 C12.01 16 11.02 16 10 16 C9.67 12.04 9.34 8.08 9 4 C7.35 3.67 5.7 3.34 4 3 C3.67 7.29 3.34 11.58 3 16 C2.01 16 1.02 16 0 16 C0 10.72 0 5.44 0 0 Z " fill="#E9D8DA" transform="translate(643,566)"/>
<path d="M0 0 C4.95 0 9.9 0 15 0 C15 0.99 15 1.98 15 3 C11.37 3 7.74 3 4 3 C4 4.65 4 6.3 4 8 C7.3 8 10.6 8 14 8 C14 8.99 14 9.98 14 11 C10.7 11 7.4 11 4 11 C4.33 12.32 4.66 13.64 5 15 C8.3 15.33 11.6 15.66 15 16 C15 16.99 15 17.98 15 19 C10.05 19 5.1 19 0 19 C0 12.73 0 6.46 0 0 Z " fill="#FAFBFB" transform="translate(121,591)"/>
<path d="M0 0 C1.32 0 2.64 0 4 0 C4.66 1.65 5.32 3.3 6 5 C6.99 3.35 7.98 1.7 9 0 C10.65 0.33 12.3 0.66 14 1 C14.33 2.32 14.66 3.64 15 5 C15.65 3.763 15.65 3.763 16.312 2.5 C16.869 1.675 17.426 0.85 18 0 C18.99 0 19.98 0 21 0 C20.689 1.584 20.376 3.167 20.062 4.75 C19.801 6.073 19.801 6.073 19.535 7.422 C19.076 9.632 18.567 11.815 18 14 C15.525 13.505 15.525 13.505 13 13 C12.34 10.69 11.68 8.38 11 6 C10.01 8.64 9.02 11.28 8 14 C6.68 14 5.36 14 4 14 C2.68 9.38 1.36 4.76 0 0 Z " fill="#212122" transform="translate(432,668)"/>
<path d="M0 0 C1.32 0 2.64 0 4 0 C4.66 2.31 5.32 4.62 6 7 C6.66 4.69 7.32 2.38 8 0 C9.65 0 11.3 0 13 0 C13.33 2.31 13.66 4.62 14 7 C14.66 7 15.32 7 16 7 C16.33 4.69 16.66 2.38 17 0 C17.99 0 18.98 0 20 0 C19.588 4.971 19.204 9.445 17 14 C15.68 14 14.36 14 13 14 C12.34 11.69 11.68 9.38 11 7 C10.01 9.31 9.02 11.62 8 14 C6.68 14 5.36 14 4 14 C2.68 9.38 1.36 4.76 0 0 Z " fill="#222223" transform="translate(569,668)"/>
<path d="M0 0 C2 1.062 2 1.062 3 3 C3.5 6.931 3.6 9.101 1.375 12.438 C-1.717 14.472 -3.364 14.606 -7 14 C-9.375 12.438 -9.375 12.438 -11 10 C-11.422 6.563 -11.609 4.179 -10 1.062 C-6.76 -0.659 -3.58 -0.53 0 0 Z " fill="#1A1A1A" transform="translate(565,668)"/>
<path d="M0 0 C2.681 2.178 2.935 3.61 3.5 7 C3 10 3 10 0.938 12.438 C-2.867 14.461 -4.892 14.085 -9 13 C-11 11 -11 11 -11.312 7.062 C-11.228 4.608 -11.106 3.212 -10 1 C-6.739 -0.63 -3.558 -0.66 0 0 Z " fill="#F3EFEF" transform="translate(813,668)"/>
<path d="M0 0 C2.062 1.562 2.062 1.562 3 4 C2.934 7.752 2.816 10.063 0.312 12.938 C-2.72 14.331 -4.701 14.491 -8 14 C-10.833 11.639 -10.987 10.119 -11.375 6.438 C-11 3 -11 3 -10 1.062 C-6.755 -0.661 -3.58 -0.655 0 0 Z " fill="#1B1A1A" transform="translate(428,668)"/>
<path d="M0 0 C2.5 1.562 2.5 1.562 4 4 C4 7.788 3.837 10.039 1.312 12.938 C-1.72 14.331 -3.701 14.491 -7 14 C-9.833 11.639 -9.987 10.119 -10.375 6.438 C-10 3 -10 3 -8.938 1.062 C-5.835 -0.639 -3.462 -0.425 0 0 Z " fill="#1B1A1A" transform="translate(489,668)"/>
<path d="M0 0 C2.008 0.328 2.008 0.328 3.754 1.488 C5.509 4.064 5.304 5.933 5.195 9.016 C5.168 10.009 5.141 11.003 5.113 12.027 C5.078 12.787 5.044 13.546 5.008 14.328 C3.029 14.355 1.05 14.374 -0.93 14.391 C-2.032 14.402 -3.134 14.414 -4.27 14.426 C-6.992 14.328 -6.992 14.328 -7.992 13.328 C-8.033 11.329 -8.035 9.328 -7.992 7.328 C-5.086 6.071 -3.196 5.328 0.008 5.328 C0.008 4.668 0.008 4.008 0.008 3.328 C-2.302 3.988 -4.612 4.648 -6.992 5.328 C-6.992 -0.804 -5.664 0.209 0 0 Z " fill="#F0E6E7" transform="translate(734.9921875,667.671875)"/>
<path d="M0 0 C2.375 1.688 2.375 1.688 4 4 C4 5.65 4 7.3 4 9 C0.37 9 -3.26 9 -7 9 C-6.67 9.99 -6.34 10.98 -6 12 C-3.603 12.68 -3.603 12.68 -1 13 C-0.34 12.34 0.32 11.68 1 11 C1.99 11 2.98 11 4 11 C2.25 14.875 2.25 14.875 0 16 C-3.503 16.381 -5.363 16.402 -8.375 14.5 C-10.654 10.994 -10.818 8.071 -10 4 C-7.312 -0.136 -4.798 -0.8 0 0 Z " fill="#F3F3F3" transform="translate(679,566)"/>
<path d="M0 0 C2.312 2.25 2.312 2.25 4 5 C4 6.32 4 7.64 4 9 C-0.455 9.495 -0.455 9.495 -5 10 C-1.04 11.162 -1.04 11.162 3 11 C2.67 11.99 2.34 12.98 2 14 C-0.771 15.386 -2.933 15.188 -6 15 C-9 13 -9 13 -9.688 10.977 C-10.007 8.571 -10.215 6.42 -10 4 C-7.14 0.551 -4.474 -1.033 0 0 Z " fill="#F1E3E5" transform="translate(839,667)"/>
<path d="M0 0 C2.312 1.688 2.312 1.688 4 4 C4 5.65 4 7.3 4 9 C0.37 9 -3.26 9 -7 9 C-6.34 10.32 -5.68 11.64 -5 13 C-1.976 12.412 1.018 11.773 4 11 C2.25 14.875 2.25 14.875 0 16 C-3.503 16.381 -5.363 16.402 -8.375 14.5 C-10.348 11.465 -10.64 9.478 -10.453 5.906 C-10 4 -10 4 -7.812 1.5 C-4.761 -0.127 -3.379 -0.693 0 0 Z " fill="#F3EEEF" transform="translate(779,566)"/>
<path d="M0 0 C2.375 2.25 2.375 2.25 4 5 C4 6.32 4 7.64 4 9 C0.37 9 -3.26 9 -7 9 C-6.67 9.99 -6.34 10.98 -6 12 C-3.03 12 -0.06 12 3 12 C2.67 12.99 2.34 13.98 2 15 C-0.841 16.42 -2.855 16.315 -6 16 C-8.375 14.5 -8.375 14.5 -10 12 C-10.818 7.929 -10.654 5.006 -8.375 1.5 C-5.257 -0.469 -3.623 -0.679 0 0 Z " fill="#EFEAEB" transform="translate(594,566)"/>
<path d="M0 0 C2.875 0.562 2.875 0.562 4.75 2.25 C5.875 4.562 5.875 4.562 5.875 9.562 C2.245 9.562 -1.385 9.562 -5.125 9.562 C-4.795 10.883 -4.465 12.202 -4.125 13.562 C-0.633 13.662 2.469 13.341 5.875 12.562 C4.812 14.562 4.812 14.562 2.875 16.562 C-1.043 17.132 -3.197 17.157 -6.562 15 C-8.755 11.579 -8.755 9.553 -8.125 5.562 C-5.625 2.107 -4.224 0.76 0 0 Z " fill="#F5F3F3" transform="translate(804.125,565.4375)"/>
<path d="M0 0 C1.875 1.25 1.875 1.25 3 3 C3 4.65 3 6.3 3 8 C-0.63 8 -4.26 8 -8 8 C-7.34 9.32 -6.68 10.64 -6 12 C-3.237 11.477 -0.674 10.891 2 10 C1.625 11.938 1.625 11.938 1 14 C-1.809 15.405 -3.888 15.249 -7 15 C-9.375 14.062 -9.375 14.062 -11 12 C-11.633 8.878 -11.647 6.121 -11 3 C-7.611 -1.187 -5.049 -1.646 0 0 Z " fill="#F0E8E9" transform="translate(486,567)"/>
<path d="M0 0 C2.375 1.688 2.375 1.688 4 4 C4 5.65 4 7.3 4 9 C0.04 9 -3.92 9 -8 9 C-7.01 10.32 -6.02 11.64 -5 13 C-2.36 12.67 0.28 12.34 3 12 C2.34 13.32 1.68 14.64 1 16 C-5.222 16.479 -5.222 16.479 -8.438 14.5 C-10.636 10.983 -10.812 8.041 -10 4 C-7.312 -0.136 -4.798 -0.8 0 0 Z " fill="#F3F1F1" transform="translate(562,566)"/>
<path d="M0 0 C6.055 -0.195 6.055 -0.195 8 0 C10 2 10 2 10.195 4.82 C10.161 6.456 10.161 6.456 10.125 8.125 C10.107 9.221 10.089 10.316 10.07 11.445 C10.047 12.288 10.024 13.131 10 14 C8.209 14.054 6.417 14.093 4.625 14.125 C3.627 14.148 2.63 14.171 1.602 14.195 C-1 14 -1 14 -3 12 C-3.125 9.375 -3.125 9.375 -3 7 C0.371 5.502 2.204 5 6 5 C5.67 4.34 5.34 3.68 5 3 C2.69 3.33 0.38 3.66 -2 4 C-1.34 2.68 -0.68 1.36 0 0 Z " fill="#212121" transform="translate(498,668)"/>
<path d="M0 0 C5.61 0 11.22 0 17 0 C17 0.99 17 1.98 17 3 C15.02 3 13.04 3 11 3 C11 8.61 11 14.22 11 20 C9.35 20 7.7 20 6 20 C6 14.72 6 9.44 6 4 C4.02 4 2.04 4 0 4 C0 2.68 0 1.36 0 0 Z " fill="#F3E8EA" transform="translate(169,591)"/>
<path d="M0 0 C1.65 0 3.3 0 5 0 C5 20.46 5 40.92 5 62 C2.03 61.67 -0.94 61.34 -4 61 C-4 60.67 -4 60.34 -4 60 C-1.69 60 0.62 60 3 60 C3 40.86 3 21.72 3 2 C1.68 1.67 0.36 1.34 -1 1 C-0.67 0.67 -0.34 0.34 0 0 Z " fill="#FAFBFB" transform="translate(879,642)"/>
<path d="M0 0 C1.938 1.188 1.938 1.188 3 3 C3.188 5.688 3.188 5.688 3 8 C0.03 8 -2.94 8 -6 8 C-6 8.99 -6 9.98 -6 11 C-1.545 10.505 -1.545 10.505 3 10 C2.67 10.99 2.34 11.98 2 13 C-1.05 14.525 -3.642 14.236 -7 14 C-8.938 13 -8.938 13 -10 11 C-10.53 7.42 -10.659 4.24 -8.938 1 C-5.868 -0.584 -3.383 -0.362 0 0 Z " fill="#F2E6E8" transform="translate(721,668)"/>
<path d="M0 0 C2 2 2 2 2.375 5.438 C2 9 2 9 0.312 10.938 C-2.442 12.203 -4.008 12.537 -7 12 C-9.535 9.727 -9.96 8.323 -10.375 4.938 C-10 2 -10 2 -8.938 0.062 C-5.817 -1.649 -3.355 -0.793 0 0 Z " fill="#B1424E" transform="translate(202,595)"/>
<path d="M0 0 C0.99 0 1.98 0 3 0 C3.33 2.31 3.66 4.62 4 7 C4.33 6.67 4.66 6.34 5 6 C7.691 5.717 9.359 5.574 11.652 7.098 C13.66 9.932 13.289 12.265 13.188 15.688 C13.16 16.867 13.133 18.046 13.105 19.262 C13.071 20.165 13.036 21.069 13 22 C12.01 22 11.02 22 10 22 C9.67 18.04 9.34 14.08 9 10 C7.35 10 5.7 10 4 10 C3.67 13.96 3.34 17.92 3 22 C2.01 22 1.02 22 0 22 C0 14.74 0 7.48 0 0 Z " fill="#E9DBDD" transform="translate(370,560)"/>
<path d="M0 0 C9.277 -0.098 9.277 -0.098 12 0 C13 1 13 1 13.098 3.941 C13.086 5.136 13.074 6.331 13.062 7.562 C13.053 8.76 13.044 9.958 13.035 11.191 C13.024 12.118 13.012 13.045 13 14 C11.68 14 10.36 14 9 14 C9 10.37 9 6.74 9 3 C7.68 3.33 6.36 3.66 5 4 C4.67 7.3 4.34 10.6 4 14 C2.68 14 1.36 14 0 14 C0 9.38 0 4.76 0 0 Z " fill="#F6F2F3" transform="translate(754,668)"/>
<path d="M0 0 C0.99 0 1.98 0 3 0 C3.33 1.98 3.66 3.96 4 6 C4.928 5.938 5.856 5.876 6.812 5.812 C10 6 10 6 11.688 7.094 C13.645 9.937 13.289 12.285 13.188 15.688 C13.16 16.867 13.133 18.046 13.105 19.262 C13.071 20.165 13.036 21.069 13 22 C12.01 22 11.02 22 10 22 C9.67 18.04 9.34 14.08 9 10 C7.35 10 5.7 10 4 10 C2.852 12.296 2.692 14.077 2.438 16.625 C2.354 17.442 2.27 18.26 2.184 19.102 C2.123 19.728 2.062 20.355 2 21 C1.34 21 0.68 21 0 21 C0 14.07 0 7.14 0 0 Z " fill="#E9D2D4" transform="translate(753,560)"/>
<path d="M0 0 C3.062 0.312 3.062 0.312 4.938 1.438 C6.609 4.224 6.526 6.132 6.062 9.312 C3.955 11.654 2.594 12.222 -0.5 12.75 C-2.938 12.312 -2.938 12.312 -4.812 10.688 C-6.325 7.494 -5.885 5.665 -4.938 2.312 C-2.938 0.312 -2.938 0.312 0 0 Z " fill="#F7F3F4" transform="translate(943.9375,504.6875)"/>
<path d="M0 0 C8.398 -0.293 8.398 -0.293 11 0 C13.281 3.421 13.219 4.682 13.125 8.688 C13.107 9.681 13.089 10.675 13.07 11.699 C13.036 12.838 13.036 12.838 13 14 C11.68 14 10.36 14 9 14 C8.67 10.7 8.34 7.4 8 4 C7.01 4 6.02 4 5 4 C4.34 7.3 3.68 10.6 3 14 C2.01 14 1.02 14 0 14 C0 9.38 0 4.76 0 0 Z " fill="#1C1C1C" transform="translate(456,668)"/>
<path d="M0 0 C1.32 0 2.64 0 4 0 C4 4.95 4 9.9 4 15 C6.64 15 9.28 15 12 15 C12.33 16.32 12.66 17.64 13 19 C8.71 19 4.42 19 0 19 C0 12.73 0 6.46 0 0 Z " fill="#F3EEEF" transform="translate(696,663)"/>
<path d="M0 0 C6 0 6 0 8.375 1.688 C10 4 10 4 10.5 6.5 C9.826 9.87 8.791 11.017 6 13 C4.02 13 2.04 13 0 13 C0 8.71 0 4.42 0 0 Z " fill="#B44A56" transform="translate(144,594)"/>
<path d="M0 0 C0.722 0.103 1.444 0.206 2.188 0.312 C2.188 0.972 2.188 1.633 2.188 2.312 C0.538 2.312 -1.113 2.312 -2.812 2.312 C-3.473 3.962 -4.132 5.612 -4.812 7.312 C-1.842 7.312 1.127 7.312 4.188 7.312 C4.188 6.653 4.188 5.992 4.188 5.312 C5.178 5.312 6.168 5.312 7.188 5.312 C7.188 6.633 7.188 7.952 7.188 9.312 C3.228 9.312 -0.733 9.312 -4.812 9.312 C-3.104 12.627 -3.104 12.627 0.312 13 C1.261 13.103 2.21 13.206 3.188 13.312 C3.188 12.653 3.188 11.992 3.188 11.312 C4.178 11.312 5.168 11.312 6.188 11.312 C4.438 15.188 4.438 15.188 2.188 16.312 C-0.688 16.688 -0.688 16.688 -3.812 16.312 C-6.671 13.755 -7.668 12.082 -8.375 8.312 C-7.476 3.517 -4.954 0.55 0 0 Z " fill="#EADBDD" transform="translate(393.8125,565.6875)"/>
<path d="M0 0 C1 1 1 1 1.25 4.438 C1.168 5.613 1.085 6.789 1 8 C-2.233 10.155 -3.252 10.469 -7 10 C-8.812 8.812 -8.812 8.812 -10 7 C-10.427 4.155 -10.361 2.636 -8.938 0.125 C-5.858 -1.663 -3.357 -0.746 0 0 Z " fill="#F4F2F2" transform="translate(843,467)"/>
<path d="M0 0 C1.732 0.155 1.732 0.155 3.5 0.312 C5.648 3.534 6.061 4.572 5.5 8.312 C3.812 10.188 3.812 10.188 1.5 11.312 C-1.87 11.072 -3.088 10.725 -5.5 8.312 C-5.75 5.312 -5.75 5.312 -5.5 2.312 C-3.5 0.312 -3.5 0.312 0 0 Z " fill="#F7F5F5" transform="translate(551.5,385.6875)"/>
<path d="M0 0 C0.66 0 1.32 0 2 0 C2.33 3.96 2.66 7.92 3 12 C6.636 13.081 6.636 13.081 9 13 C9.33 8.71 9.66 4.42 10 0 C10.99 0 11.98 0 13 0 C13 5.28 13 10.56 13 16 C4.602 16.195 4.602 16.195 2 16 C0 14 0 14 -0.195 10.742 C-0.172 9.466 -0.149 8.19 -0.125 6.875 C-0.107 5.594 -0.089 4.312 -0.07 2.992 C-0.047 2.005 -0.024 1.017 0 0 Z " fill="#EFE5E6" transform="translate(421,566)"/>
<path d="M0 0 C1.671 0.062 1.671 0.062 3.375 0.125 C4.035 1.445 4.695 2.765 5.375 4.125 C2.735 3.795 0.095 3.465 -2.625 3.125 C-2.625 3.785 -2.625 4.445 -2.625 5.125 C1.83 7.105 1.83 7.105 6.375 9.125 C6.562 11.5 6.562 11.5 6.375 14.125 C2.68 16.588 0.742 16.515 -3.625 16.125 C-5.562 14.75 -5.562 14.75 -6.625 13.125 C-6.625 12.465 -6.625 11.805 -6.625 11.125 C-5.79 11.342 -5.79 11.342 -4.938 11.562 C-2.511 12.153 -0.076 12.648 2.375 13.125 C2.705 12.135 3.035 11.145 3.375 10.125 C2.809 9.992 2.243 9.859 1.66 9.723 C0.927 9.546 0.193 9.369 -0.562 9.188 C-1.293 9.013 -2.024 8.839 -2.777 8.66 C-4.625 8.125 -4.625 8.125 -5.625 7.125 C-5.812 4.688 -5.812 4.688 -5.625 2.125 C-3.625 0.125 -3.625 0.125 0 0 Z " fill="#EDE5E6" transform="translate(734.625,565.875)"/>
<path d="M0 0 C0.66 0 1.32 0 2 0 C2.33 3.96 2.66 7.92 3 12 C4.32 12.33 5.64 12.66 7 13 C9.589 10.411 9.374 8.973 9.625 5.375 C9.7 4.372 9.775 3.369 9.852 2.336 C9.901 1.565 9.95 0.794 10 0 C10.99 0 11.98 0 13 0 C13 5.28 13 10.56 13 16 C11.68 15.67 10.36 15.34 9 15 C8.67 15.33 8.34 15.66 8 16 C5.062 16.188 5.062 16.188 2 16 C0 14 0 14 -0.195 10.742 C-0.172 9.466 -0.149 8.19 -0.125 6.875 C-0.107 5.594 -0.089 4.312 -0.07 2.992 C-0.047 2.005 -0.024 1.017 0 0 Z " fill="#EDD9DB" transform="translate(448,566)"/>
<path d="M0 0 C5.94 0 11.88 0 18 0 C20.084 6.253 20.044 7.944 19 14 C18.34 13.34 17.68 12.68 17 12 C16.34 12.66 15.68 13.32 15 14 C14.34 14 13.68 14 13 14 C12.34 14.66 11.68 15.32 11 16 C11 12.04 11 8.08 11 4 C12.98 4 14.96 4 17 4 C17 3.01 17 2.02 17 1 C11.39 1 5.78 1 0 1 C0 0.67 0 0.34 0 0 Z M20 2 C20.66 2.33 21.32 2.66 22 3 C21.01 3 20.02 3 19 3 C19.33 2.67 19.66 2.34 20 2 Z " fill="#BF5763" transform="translate(169,590)"/>
<path d="M0 0 C0.312 2.75 0.312 2.75 0 6 C-2.062 8.438 -2.062 8.438 -5 10 C-8.812 9.75 -8.812 9.75 -12 9 C-12.33 7.35 -12.66 5.7 -13 4 C-8.999 0.46 -5.23 0 0 0 Z " fill="#C14F5C" transform="translate(461,500)"/>
<path d="M0 0 C1.637 1.098 1.637 1.098 3 3 C3.293 6.137 3.293 6.137 3.188 9.688 C3.16 10.867 3.133 12.046 3.105 13.262 C3.071 14.165 3.036 15.069 3 16 C2.01 16 1.02 16 0 16 C-0.33 12.04 -0.66 8.08 -1 4 C-2.32 3.67 -3.64 3.34 -5 3 C-7.589 5.589 -7.374 7.027 -7.625 10.625 C-7.7 11.628 -7.775 12.631 -7.852 13.664 C-7.901 14.435 -7.95 15.206 -8 16 C-8.66 16 -9.32 16 -10 16 C-10 11.05 -10 6.1 -10 1 C-3.276 -0.345 -3.276 -0.345 0 0 Z " fill="#F0E5E6" transform="translate(697,566)"/>
<path d="M0 0 C3.152 0.075 3.969 0.262 6.625 2.188 C8.125 4.375 8.125 4.375 8.125 7.375 C2.845 7.375 -2.435 7.375 -7.875 7.375 C-5.123 0.496 -5.123 0.496 0 0 Z " fill="#C35663" transform="translate(703.875,407.625)"/>
<path d="M0 0 C2 1.25 2 1.25 3 3 C3 4.32 3 5.64 3 7 C-2.28 7 -7.56 7 -13 7 C-10.16 -0.099 -7.056 -0.955 0 0 Z " fill="#C25561" transform="translate(586,408)"/>
<path d="M0 0 C2.5 1.812 2.5 1.812 4 4 C4 4.99 4 5.98 4 7 C-1.28 7 -6.56 7 -12 7 C-10.272 0.089 -7.053 -1.306 0 0 Z " fill="#C25561" transform="translate(498,408)"/>
<path d="M0 0 C1.207 0.031 1.207 0.031 2.438 0.062 C2.107 1.053 1.778 2.043 1.438 3.062 C0.447 3.062 -0.543 3.062 -1.562 3.062 C-1.562 4.053 -1.562 5.043 -1.562 6.062 C-0.572 6.062 0.418 6.062 1.438 6.062 C1.438 7.053 1.438 8.043 1.438 9.062 C0.447 9.062 -0.543 9.062 -1.562 9.062 C-1.562 13.352 -1.562 17.643 -1.562 22.062 C-2.553 22.062 -3.543 22.062 -4.562 22.062 C-4.562 17.773 -4.562 13.482 -4.562 9.062 C-5.553 8.732 -6.543 8.403 -7.562 8.062 C-7.232 7.403 -6.903 6.742 -6.562 6.062 C-5.903 6.062 -5.242 6.062 -4.562 6.062 C-4.418 5.258 -4.274 4.454 -4.125 3.625 C-3.347 0.082 -3.347 0.082 0 0 Z " fill="#EEE7E8" transform="translate(522.5625,559.9375)"/>
<path d="M0 0 C4.23 0.43 5.799 1.311 8.688 4.375 C8.688 5.365 8.688 6.355 8.688 7.375 C3.408 7.375 -1.872 7.375 -7.312 7.375 C-4.569 0.517 -4.569 0.517 0 0 Z " fill="#C45A66" transform="translate(578.3125,487.625)"/>
<path d="M0 0 C4.23 0.43 5.799 1.311 8.688 4.375 C8.688 5.365 8.688 6.355 8.688 7.375 C3.408 7.375 -1.873 7.375 -7.312 7.375 C-4.569 0.517 -4.569 0.517 0 0 Z " fill="#C14E5B" transform="translate(415.3125,487.625)"/>
<path d="M0 0 C2.375 0.75 2.375 0.75 3.375 1.75 C3.648 7.486 3.648 7.486 3.375 9.75 C2.715 10.41 2.055 11.07 1.375 11.75 C-1.922 11.42 -3.248 11.127 -5.625 8.75 C-5.962 5.586 -6.124 3.565 -4.438 0.812 C-2.625 -0.25 -2.625 -0.25 0 0 Z " fill="#C1515E" transform="translate(615.625,568.25)"/>
<path d="M0 0 C1.207 0.031 1.207 0.031 2.438 0.062 C2.438 0.722 2.438 1.383 2.438 2.062 C1.447 2.393 0.457 2.722 -0.562 3.062 C-0.892 4.053 -1.223 5.043 -1.562 6.062 C-0.243 6.062 1.077 6.062 2.438 6.062 C2.438 7.053 2.438 8.043 2.438 9.062 C1.118 9.062 -0.202 9.062 -1.562 9.062 C-1.562 13.352 -1.562 17.643 -1.562 22.062 C-2.553 22.062 -3.543 22.062 -4.562 22.062 C-4.562 17.773 -4.562 13.482 -4.562 9.062 C-5.223 9.062 -5.882 9.062 -6.562 9.062 C-6.562 8.072 -6.562 7.082 -6.562 6.062 C-5.902 6.062 -5.243 6.062 -4.562 6.062 C-4.418 5.258 -4.274 4.454 -4.125 3.625 C-3.347 0.082 -3.347 0.082 0 0 Z " fill="#EFE6E7" transform="translate(416.5625,559.9375)"/>
<path d="M0 0 C2.343 0.256 4.678 0.593 7 1 C8.507 4.013 8.178 6.683 8 10 C7.34 10.66 6.68 11.32 6 12 C4.02 12 2.04 12 0 12 C0 8.04 0 4.08 0 0 Z " fill="#F3F3F4" transform="translate(402,666)"/>
<path d="M0 0 C0.33 0 0.66 0 1 0 C1 4.95 1 9.9 1 15 C2.32 15 3.64 15 5 15 C5 15.66 5 16.32 5 17 C0.05 16.67 -4.9 16.34 -10 16 C-10 15.67 -10 15.34 -10 15 C-7.03 15 -4.06 15 -1 15 C-1.33 13.68 -1.66 12.36 -2 11 C-5.3 10.67 -8.6 10.34 -12 10 C-12 9.01 -12 8.02 -12 7 C-11.385 6.997 -10.77 6.995 -10.137 6.992 C-7.629 6.872 -5.42 6.682 -3 6 C-0.838 3.097 -0.838 3.097 0 0 Z " fill="#AC3B47" transform="translate(138,596)"/>
<path d="M0 0 C0.33 0 0.66 0 1 0 C3.143 7.429 3.143 7.429 4 11 C-0.852 13.599 -5.53 14.392 -11 15 C-11.66 14.67 -12.32 14.34 -13 14 C-12.67 11.69 -12.34 9.38 -12 7 C-11.67 7 -11.34 7 -11 7 C-11 8.98 -11 10.96 -11 13 C-9.35 13 -7.7 13 -6 13 C-5.917 11.886 -5.835 10.773 -5.75 9.625 C-5.502 8.429 -5.255 7.232 -5 6 C-3 4.812 -3 4.812 -1 4 C-0.195 1.95 -0.195 1.95 0 0 Z " fill="#AC3B47" transform="translate(186,598)"/>
<path d="M0 0 C2.375 0.812 2.375 0.812 3.375 2.812 C3.826 8.113 3.826 8.113 2.125 10.75 C0.375 11.812 0.375 11.812 -1.688 11.562 C-3.625 10.812 -3.625 10.812 -5.625 9.812 C-5.987 3.422 -5.987 3.422 -4.438 0.812 C-2.625 -0.188 -2.625 -0.188 0 0 Z " fill="#BF4F5C" transform="translate(633.625,568.1875)"/>
<path d="M0 0 C1.938 0.812 1.938 0.812 3.938 2.812 C4.274 5.977 4.437 7.998 2.75 10.75 C0.938 11.812 0.938 11.812 -1.688 11.625 C-4.062 10.812 -4.062 10.812 -5.062 8.812 C-5.514 3.512 -5.514 3.512 -3.812 0.875 C-2.062 -0.188 -2.062 -0.188 0 0 Z " fill="#C04B59" transform="translate(507.0625,568.1875)"/>
<path d="M0 0 C0.99 0 1.98 0 3 0 C3 1.32 3 2.64 3 4 C3.99 4 4.98 4 6 4 C6 4.99 6 5.98 6 7 C5.01 7 4.02 7 3 7 C3 10.3 3 13.6 3 17 C3.99 17 4.98 17 6 17 C6 17.99 6 18.98 6 20 C4.02 19.67 2.04 19.34 0 19 C0 15.04 0 11.08 0 7 C-0.99 7 -1.98 7 -3 7 C-3 6.01 -3 5.02 -3 4 C-2.01 4 -1.02 4 0 4 C0 2.68 0 1.36 0 0 Z " fill="#F6F2F3" transform="translate(705,562)"/>
<path d="M0 0 C1.32 0 2.64 0 4 0 C4 6.6 4 13.2 4 20 C2.68 20 1.36 20 0 20 C0 13.4 0 6.8 0 0 Z " fill="#212122" transform="translate(472,662)"/>
<path d="M0 0 C1.32 0 2.64 0 4 0 C4 6.6 4 13.2 4 20 C2.68 20 1.36 20 0 20 C0 13.4 0 6.8 0 0 Z " fill="#F9F8F8" transform="translate(162,591)"/>
<path d="M0 0 C2.438 0.188 2.438 0.188 3.438 1.188 C3.711 6.924 3.711 6.924 3.438 9.188 C2.778 9.847 2.117 10.508 1.438 11.188 C-1.125 10.938 -1.125 10.938 -3.562 10.188 C-4.944 7.425 -4.753 5.24 -4.562 2.188 C-2.562 0.188 -2.562 0.188 0 0 Z " fill="#C04B59" transform="translate(541.5625,568.8125)"/>
<path d="M0 0 C0.66 0 1.32 0 2 0 C2 1.32 2 2.64 2 4 C3.32 4.33 4.64 4.66 6 5 C6 5.66 6 6.32 6 7 C5.01 7 4.02 7 3 7 C3 10.3 3 13.6 3 17 C3.99 17.33 4.98 17.66 6 18 C6 18.66 6 19.32 6 20 C4.02 19.67 2.04 19.34 0 19 C-0.049 18.145 -0.098 17.291 -0.148 16.41 C-0.223 15.305 -0.298 14.201 -0.375 13.062 C-0.445 11.96 -0.514 10.858 -0.586 9.723 C-0.723 8.824 -0.859 7.926 -1 7 C-1.66 6.67 -2.32 6.34 -3 6 C-3 5.34 -3 4.68 -3 4 C-2.01 4 -1.02 4 0 4 C0 2.68 0 1.36 0 0 Z " fill="#EEE0E2" transform="translate(439,562)"/>
<path d="M0 0 C3 1 3 1 4.688 4.312 C6 8 6 8 6 12 C6.66 12 7.32 12 8 12 C8.182 11.078 8.182 11.078 8.367 10.137 C8.535 9.328 8.702 8.52 8.875 7.688 C9.037 6.887 9.2 6.086 9.367 5.262 C10 3 10 3 12 0 C12.66 0 13.32 0 14 0 C12.252 5.467 10.342 10.758 8 16 C5 15 5 15 3.613 12.383 C2.969 10.77 2.969 10.77 2.312 9.125 C1.657 7.52 1.657 7.52 0.988 5.883 C0 3 0 3 0 0 Z " fill="#F3F1F1" transform="translate(568,566)"/>
<path d="M0 0 C2.97 0 5.94 0 9 0 C9 1.32 9 2.64 9 4 C7.35 4 5.7 4 4 4 C4 7.3 4 10.6 4 14 C2.68 14 1.36 14 0 14 C0 9.38 0 4.76 0 0 Z " fill="#F3EEEF" transform="translate(743,668)"/>
<path d="M0 0 C2 2 2 2 2.25 4.25 C1.964 7.398 1.099 10.045 0 13 C-0.33 12.01 -0.66 11.02 -1 10 C-4.3 10 -7.6 10 -11 10 C-11 8.35 -11 6.7 -11 5 C-7.37 5 -3.74 5 0 5 C0 3.35 0 1.7 0 0 Z " fill="#C25C68" transform="translate(136,589)"/>
<path d="M0 0 C0.99 0.33 1.98 0.66 3 1 C3 1.99 3 2.98 3 4 C1.68 4.33 0.36 4.66 -1 5 C-1.33 8.3 -1.66 11.6 -2 15 C-3.32 15 -4.64 15 -6 15 C-6 10.38 -6 5.76 -6 1 C-4.35 1 -2.7 1 -1 1 C-0.67 0.67 -0.34 0.34 0 0 Z " fill="#F1EBEC" transform="translate(825,667)"/>
<path d="M0 0 C3 1 3 1 3 1 Z M3 1 C4.111 4.332 3.889 6.621 3 10 C2.67 10.66 2.34 11.32 2 12 C0 12.043 -2 12.041 -4 12 C-5 11 -5 11 -5.062 7.938 C-5.042 6.968 -5.021 5.999 -5 5 C-2.094 3.743 -0.204 3 3 3 C3 2.34 3 1.68 3 1 Z " fill="#F0E2E4" transform="translate(732,670)"/>
<path d="M0 0 C5.28 0 10.56 0 16 0 C16 0.66 16 1.32 16 2 C14.02 2.33 12.04 2.66 10 3 C9.67 8.94 9.34 14.88 9 21 C8.34 21 7.68 21 7 21 C7 14.73 7 8.46 7 2 C4.69 2 2.38 2 0 2 C0 1.34 0 0.68 0 0 Z " fill="#FBFCFC" transform="translate(351,561)"/>
<path d="M0 0 C1.114 0.155 1.114 0.155 2.25 0.312 C2.25 1.303 2.25 2.293 2.25 3.312 C0.6 3.972 -1.05 4.633 -2.75 5.312 C-2.96 9.453 -2.96 9.453 -1.75 13.312 C0.275 13.965 0.275 13.965 2.25 14.312 C2.25 14.972 2.25 15.633 2.25 16.312 C-1.125 16 -1.125 16 -4.75 15.312 C-7.242 11.575 -7.208 9.739 -6.75 5.312 C-3.956 0.45 -3.956 0.45 0 0 Z " fill="#F2ECED" transform="translate(540.75,565.6875)"/>
<path d="M0 0 C0.99 0 1.98 0 3 0 C3 7.26 3 14.52 3 22 C2.01 22 1.02 22 0 22 C0 14.74 0 7.48 0 0 Z " fill="#F0E8E9" transform="translate(601,560)"/>
<path d="M0 0 C6.055 -0.195 6.055 -0.195 8 0 C10 2 10 2 10 6 C5.545 6.495 5.545 6.495 1 7 C0.67 6.01 0.34 5.02 0 4 C-0.66 4 -1.32 4 -2 4 C-1.34 2.68 -0.68 1.36 0 0 Z M-4 4 C-2 5 -2 5 -2 5 Z " fill="#C6616C" transform="translate(451,488)"/>
<path d="M0 0 C1.32 0.33 2.64 0.66 4 1 C6.187 0.621 6.187 0.621 8 0 C8 0.99 8 1.98 8 3 C7.033 3.321 7.033 3.321 6.047 3.648 C3.722 4.847 3.722 4.847 3.391 7.602 C3.344 8.599 3.298 9.597 3.25 10.625 C3.193 11.628 3.137 12.631 3.078 13.664 C3.052 14.435 3.027 15.206 3 16 C2.01 16 1.02 16 0 16 C0 10.72 0 5.44 0 0 Z " fill="#EEE3E4" transform="translate(465,566)"/>
<path d="M0 0 C0.812 1.812 0.812 1.812 1 4 C0.062 6.25 0.062 6.25 -1 8 C-3.375 8.125 -3.375 8.125 -6 8 C-8 6 -8 6 -8.125 3.375 C-8.084 2.591 -8.043 1.808 -8 1 C-3.375 -1.125 -3.375 -1.125 0 0 Z " fill="#252525" transform="translate(503,674)"/>
<path d="M0 0 C2.97 0.495 2.97 0.495 6 1 C5.34 5.29 4.68 9.58 4 14 C2.68 14 1.36 14 0 14 C0 9.38 0 4.76 0 0 Z " fill="#F1ECED" transform="translate(754,668)"/>
<path d="M0 0 C0 0.66 0 1.32 0 2 C0.639 2.268 1.279 2.536 1.938 2.812 C4 4 4 4 5 7 C1.37 7 -2.26 7 -6 7 C-6 8.65 -6 10.3 -6 12 C-6.33 12 -6.66 12 -7 12 C-7.441 7.5 -7.529 5.654 -4.625 2.062 C-2 0 -2 0 0 0 Z " fill="#EBDBDD" transform="translate(803,566)"/>
<path d="M0 0 C2.97 0.33 5.94 0.66 9 1 C7.02 1.99 7.02 1.99 5 3 C3.716 5.569 3.67 7.766 3.438 10.625 C3.354 11.628 3.27 12.631 3.184 13.664 C3.123 14.435 3.062 15.206 3 16 C2.01 16 1.02 16 0 16 C0 10.72 0 5.44 0 0 Z " fill="#EFDFE1" transform="translate(643,566)"/>
<path d="M0 0 C0.66 0 1.32 0 2 0 C2 2.64 2 5.28 2 8 C5.465 7.505 5.465 7.505 9 7 C8.381 7.268 7.763 7.536 7.125 7.812 C4.7 8.956 4.7 8.956 3 12 C2.546 14.279 2.546 14.279 2.375 16.688 C2.3 17.496 2.225 18.304 2.148 19.137 C2.099 19.752 2.05 20.366 2 21 C1.34 21 0.68 21 0 21 C0 14.07 0 7.14 0 0 Z " fill="#FAFAFA" transform="translate(753,560)"/>
<path d="M0 0 C3.496 -0.318 5.397 -0.396 8.375 1.562 C10.595 4.892 10.421 7.07 10 11 C9.312 13.375 9.312 13.375 8 15 C5.375 15.75 5.375 15.75 3 16 C3.495 15.505 3.99 15.01 4.5 14.5 C6.712 10.814 6.344 8.268 6 4 C4.048 2.048 2.468 1.152 0 0 Z " fill="#F2EDEE" transform="translate(612,566)"/>
<path d="M0 0 C2.667 0 5.333 0 8 0 C8 0.99 8 1.98 8 3 C6.35 3.66 4.7 4.32 3 5 C2.67 8.63 2.34 12.26 2 16 C1.34 16 0.68 16 0 16 C0 10.72 0 5.44 0 0 Z " fill="#F6F3F3" transform="translate(787,566)"/>
<path d="M0 0 C2.312 1.75 2.312 1.75 4 4 C4 5.32 4 6.64 4 8 C0.37 8 -3.26 8 -7 8 C-7 7.67 -7 7.34 -7 7 C-4.36 7 -1.72 7 1 7 C0.34 5.68 -0.32 4.36 -1 3 C-3.763 3.523 -6.326 4.109 -9 5 C-6.917 0.388 -5.127 -0.61 0 0 Z " fill="#F1EAEB" transform="translate(779,566)"/>
<path d="M0 0 C1.32 0.33 2.64 0.66 4 1 C4.188 3.375 4.188 3.375 4 6 C0.305 8.463 -1.633 8.39 -6 8 C-7.938 6.625 -7.938 6.625 -9 5 C-9 4.34 -9 3.68 -9 3 C-8.443 3.144 -7.886 3.289 -7.312 3.438 C-4.886 4.028 -2.451 4.523 0 5 C0 3.35 0 1.7 0 0 Z " fill="#F4F1F1" transform="translate(737,574)"/>
<path d="M0 0 C0.99 0 1.98 0 3 0 C3 5.28 3 10.56 3 16 C2.01 16 1.02 16 0 16 C0 10.72 0 5.44 0 0 Z " fill="#EADEDF" transform="translate(722,566)"/>
<path d="M0 0 C0 0.66 0 1.32 0 2 C-0.66 2 -1.32 2 -2 2 C-2 2.66 -2 3.32 -2 4 C-4.97 4 -7.94 4 -11 4 C-10.312 1.562 -10.312 1.562 -9 -1 C-5.336 -2.446 -3.29 -2.072 0 0 Z " fill="#DFB7BB" transform="translate(400,569)"/>
<path d="M0 0 C0.722 0.103 1.444 0.206 2.188 0.312 C2.188 0.972 2.188 1.633 2.188 2.312 C0.538 2.312 -1.113 2.312 -2.812 2.312 C-3.473 3.962 -4.132 5.612 -4.812 7.312 C-1.842 7.312 1.127 7.312 4.188 7.312 C4.188 6.653 4.188 5.992 4.188 5.312 C4.848 5.312 5.507 5.312 6.188 5.312 C6.188 6.303 6.188 7.293 6.188 8.312 C-0.248 8.808 -0.248 8.808 -6.812 9.312 C-7.142 7.992 -7.473 6.673 -7.812 5.312 C-5.389 2.177 -4.023 0.447 0 0 Z " fill="#F2EAEB" transform="translate(393.8125,565.6875)"/>
<path d="M0 0 C1.65 0.33 3.3 0.66 5 1 C5 2.98 5 4.96 5 7 C3.35 7.33 1.7 7.66 0 8 C-1.125 5.688 -1.125 5.688 -2 3 C-1.34 2.01 -0.68 1.02 0 0 Z " fill="#EDEEF0" transform="translate(422,671)"/>
<path d="M0 0 C1.666 -0.043 3.334 -0.041 5 0 C6 1 6 1 6.188 3.438 C6 6 6 6 4 8 C1.875 7.625 1.875 7.625 0 7 C-0.934 3.99 -1.044 3.133 0 0 Z " fill="#EFEFF1" transform="translate(483,671)"/>
<path d="M0 0 C1.32 0 2.64 0 4 0 C5.812 2.312 5.812 2.312 7 5 C6.67 5.99 6.34 6.98 6 8 C4.02 8.33 2.04 8.66 0 9 C-1.534 5.931 -0.55 3.299 0 0 Z " fill="#AF3D49" transform="translate(217,604)"/>
<path d="M0 0 C0.557 0.804 1.114 1.609 1.688 2.438 C3.769 5.151 3.769 5.151 6.625 5.938 C7.801 5.968 7.801 5.968 9 6 C9.66 5.34 10.32 4.68 11 4 C11.99 4 12.98 4 14 4 C12.25 7.875 12.25 7.875 10 9 C6.378 9.394 4.637 9.452 1.625 7.312 C-0.273 4.612 -0.359 3.229 0 0 Z " fill="#F2EFF0" transform="translate(669,573)"/>
<path d="M0 0 C0.33 0 0.66 0 1 0 C1.25 2.812 1.25 2.812 1 6 C-1.252 8.598 -2.65 8.957 -6.062 9.375 C-9 9 -9 9 -10.875 7.812 C-12.348 5.44 -12.222 3.741 -12 1 C-10.5 2.375 -10.5 2.375 -9 4 C-9 4.66 -9 5.32 -9 6 C-6.69 6 -4.38 6 -2 6 C-1.34 4.02 -0.68 2.04 0 0 Z " fill="#F6F4F4" transform="translate(512,573)"/>
<path d="M0 0 C1.675 0.286 3.344 0.618 5 1 C5 2.98 5 4.96 5 7 C3.344 7.382 1.675 7.714 0 8 C-1 7 -1 7 -1.125 4 C-1 1 -1 1 0 0 Z " fill="#EBEDEF" transform="translate(559,671)"/>
<path d="M0 0 C-0.598 0.268 -1.196 0.536 -1.812 0.812 C-4.105 2.057 -5.386 2.956 -7 5 C-7.578 7.732 -7.578 7.732 -7.688 10.688 C-7.786 12.178 -7.786 12.178 -7.887 13.699 C-7.943 14.838 -7.943 14.838 -8 16 C-8.66 16 -9.32 16 -10 16 C-10 11.05 -10 6.1 -10 1 C-6.334 0.267 -3.633 -0.104 0 0 Z " fill="#F4F0F0" transform="translate(697,566)"/>
<path d="M0 0 C1.32 0 2.64 0 4 0 C4.625 2.875 4.625 2.875 5 6 C4.34 6.66 3.68 7.32 3 8 C0.875 7.625 0.875 7.625 -1 7 C-1.625 5.188 -1.625 5.188 -2 3 C-1.34 2.01 -0.68 1.02 0 0 Z " fill="#E6E9EC" transform="translate(516,671)"/>
<path d="M0 0 C1.125 3.75 1.125 3.75 0 6 C-3.719 7.963 -5.972 8.151 -10 7 C-10.33 5.68 -10.66 4.36 -11 3 C-7.37 3 -3.74 3 0 3 C0 2.01 0 1.02 0 0 Z " fill="#C45B67" transform="translate(810,572)"/>
<path d="M0 0 C1.675 0.286 3.344 0.618 5 1 C5.125 3.375 5.125 3.375 5 6 C4.34 6.66 3.68 7.32 3 8 C0.875 7.625 0.875 7.625 -1 7 C-1.043 5 -1.041 3 -1 1 C-0.67 0.67 -0.34 0.34 0 0 Z " fill="#BB4855" transform="translate(807,671)"/>
<path d="M0 0 C3.63 0 7.26 0 11 0 C8.812 2.562 8.812 2.562 6 5 C3.188 4.812 3.188 4.812 1 4 C0.67 2.68 0.34 1.36 0 0 Z " fill="#C25662" transform="translate(478,575)"/>
<path d="M0 0 C0.66 0 1.32 0 2 0 C2.026 0.843 2.052 1.686 2.078 2.555 C2.135 3.65 2.192 4.746 2.25 5.875 C2.296 6.966 2.343 8.056 2.391 9.18 C2.688 12.133 2.688 12.133 5.047 13.383 C5.691 13.586 6.336 13.79 7 14 C7 14.66 7 15.32 7 16 C4.625 16.125 4.625 16.125 2 16 C0 14 0 14 -0.195 10.742 C-0.172 9.466 -0.149 8.19 -0.125 6.875 C-0.107 5.594 -0.089 4.312 -0.07 2.992 C-0.047 2.005 -0.024 1.017 0 0 Z " fill="#F7F3F4" transform="translate(448,566)"/>
<path d="M0 0 C2.375 -0.125 2.375 -0.125 5 0 C7 2 7 2 7.195 5.258 C7.161 7.172 7.161 7.172 7.125 9.125 C7.107 10.406 7.089 11.688 7.07 13.008 C7.047 13.995 7.024 14.983 7 16 C6.34 16 5.68 16 5 16 C4.67 11.71 4.34 7.42 4 3 C2.68 2.67 1.36 2.34 0 2 C0 1.34 0 0.68 0 0 Z " fill="#F6F5F6" transform="translate(658,566)"/>
<path d="M0 0 C2.64 0 5.28 0 8 0 C7.67 1.65 7.34 3.3 7 5 C4.69 5 2.38 5 0 5 C0 3.35 0 1.7 0 0 Z " fill="#B34450" transform="translate(217,595)"/>
<path d="M0 0 C2.375 0.312 2.375 0.312 5 1 C7 4 7 4 7 9 C1.06 9.495 1.06 9.495 -5 10 C-5 9.34 -5 8.68 -5 8 C-0.545 7.505 -0.545 7.505 4 7 C2.5 3 2.5 3 0 2 C0 1.34 0 0.68 0 0 Z " fill="#F0EAEB" transform="translate(803,566)"/>
<path d="M0 0 C3.63 0 7.26 0 11 0 C8.812 2.562 8.812 2.562 6 5 C3.188 4.812 3.188 4.812 1 4 C0.67 2.68 0.34 1.36 0 0 Z " fill="#C25461" transform="translate(672,575)"/>
<path d="M0 0 C3.457 -0.314 5.399 -0.38 8.375 1.5 C10.736 5.133 10.285 7.718 10 12 C7.477 10.026 7.007 9.033 6.312 5.812 C6.209 4.884 6.106 3.956 6 3 C4.02 2.34 2.04 1.68 0 1 C0 0.67 0 0.34 0 0 Z " fill="#EADEE0" transform="translate(630,566)"/>
<path d="M0 0 C4.449 -0.361 4.449 -0.361 6.812 1.188 C8.367 3.56 8.225 5.22 8 8 C5.03 7.67 2.06 7.34 -1 7 C-1 6.67 -1 6.34 -1 6 C0.98 6 2.96 6 5 6 C3.63 2.839 3.011 2.007 0 0 Z " fill="#F7F5F5" transform="translate(481,567)"/>
<path d="M0 0 C1 4 1 4 1 4 Z M1 4 C1.99 4 2.98 4 4 4 C4 4.99 4 5.98 4 7 C3.01 6.67 2.02 6.34 1 6 C1 5.34 1 4.68 1 4 Z M0 7 C0.33 7 0.66 7 1 7 C1 10.3 1 13.6 1 17 C1.99 17 2.98 17 4 17 C4 17.99 4 18.98 4 20 C2.68 20 1.36 20 0 20 C-1.067 16.8 -0.948 15.115 -0.562 11.812 C-0.461 10.911 -0.359 10.01 -0.254 9.082 C-0.17 8.395 -0.086 7.708 0 7 Z " fill="#DEB5B9" transform="translate(707,562)"/>
<path d="M0 0 C1.675 0.286 3.344 0.618 5 1 C5.33 2.32 5.66 3.64 6 5 C3.36 5 0.72 5 -2 5 C-1.125 1.125 -1.125 1.125 0 0 Z " fill="#CC7982" transform="translate(774,568)"/>
<path d="M0 0 C0.33 1.32 0.66 2.64 1 4 C-1.64 4 -4.28 4 -7 4 C-6.625 2.062 -6.625 2.062 -6 0 C-3.509 -1.245 -2.589 -0.777 0 0 Z " fill="#C35D68" transform="translate(679,569)"/>
<path d="M0 0 C1.675 0.286 3.344 0.618 5 1 C5.33 2.32 5.66 3.64 6 5 C3.36 5 0.72 5 -2 5 C-1.125 1.125 -1.125 1.125 0 0 Z " fill="#C05662" transform="translate(589,568)"/>
<path d="M0 0 C2.97 0 5.94 0 9 0 C7.02 0.99 7.02 0.99 5 2 C4.188 4.555 4.188 4.555 4 7 C3.01 6.67 2.02 6.34 1 6 C0.67 4.02 0.34 2.04 0 0 Z " fill="#C55F6A" transform="translate(697,421)"/>
<path d="M0 0 C3.63 0 7.26 0 11 0 C10.01 0.33 9.02 0.66 8 1 C8 1.99 8 2.98 8 4 C6.02 4 4.04 4 2 4 C1.34 2.68 0.68 1.36 0 0 Z " fill="#C1505D" transform="translate(389,575)"/>
<path d="M0 0 C0.66 0 1.32 0 2 0 C3.016 6.886 2.839 13.098 2 20 C1.67 20 1.34 20 1 20 C0.12 13.288 -0.114 6.766 0 0 Z " fill="#FAFCFC" transform="translate(370,561)"/>
<path d="M0 0 C1.207 0.031 1.207 0.031 2.438 0.062 C2.438 0.722 2.438 1.383 2.438 2.062 C1.447 2.393 0.457 2.722 -0.562 3.062 C-0.892 4.053 -1.223 5.043 -1.562 6.062 C-3 7.75 -3 7.75 -4.562 9.062 C-5.223 9.062 -5.882 9.062 -6.562 9.062 C-6.562 8.072 -6.562 7.082 -6.562 6.062 C-5.902 6.062 -5.243 6.062 -4.562 6.062 C-4.418 5.258 -4.274 4.454 -4.125 3.625 C-3.347 0.082 -3.347 0.082 0 0 Z M-1.562 6.062 C0.438 7.062 0.438 7.062 0.438 7.062 Z " fill="#F3EEEF" transform="translate(416.5625,559.9375)"/>
<path d="M0 0 C1.98 0 3.96 0 6 0 C6.33 1.32 6.66 2.64 7 4 C4.03 4 1.06 4 -2 4 C-1.34 2.68 -0.68 1.36 0 0 Z " fill="#C45E69" transform="translate(556,569)"/>
<path d="M0 0 C1.65 0 3.3 0 5 0 C5.66 1.32 6.32 2.64 7 4 C4.03 4 1.06 4 -2 4 C-1.34 2.68 -0.68 1.36 0 0 Z " fill="#C5606C" transform="translate(801,569)"/>
<path d="M0 0 C1.98 0 3.96 0 6 0 C6.33 1.32 6.66 2.64 7 4 C4.36 4 1.72 4 -1 4 C-0.67 2.68 -0.34 1.36 0 0 Z " fill="#C35965" transform="translate(479,569)"/>
<path d="M0 0 C3.703 -0.337 5.395 -0.477 8.375 1.875 C10 4 10 4 10 6 C9.01 6.33 8.02 6.66 7 7 C6.67 5.68 6.34 4.36 6 3 C4.35 3 2.7 3 1 3 C0.67 2.01 0.34 1.02 0 0 Z " fill="#EAD6D8" transform="translate(556,566)"/>
<path d="M0 0 C0.33 0 0.66 0 1 0 C1.36 5.4 1.36 5.4 -0.125 7.875 C-2.78 9.468 -4.968 9.202 -8 9 C-4.25 6 -4.25 6 -2 6 C-1.34 4.02 -0.68 2.04 0 0 Z " fill="#F3EEEE" transform="translate(638,573)"/>
<path d="M0 0 C0.99 0 1.98 0 3 0 C3.247 0.639 3.495 1.279 3.75 1.938 C4.816 4.187 4.816 4.187 7.125 4.75 C7.744 4.832 8.362 4.915 9 5 C9 5.66 9 6.32 9 7 C5.625 6.688 5.625 6.688 2 6 C0 3 0 3 0 0 Z " fill="#F4ECED" transform="translate(534,575)"/>
<path d="M0 0 C3.3 0 6.6 0 10 0 C9.67 1.32 9.34 2.64 9 4 C9 3.34 9 2.68 9 2 C6.69 2.33 4.38 2.66 2 3 C1.34 2.01 0.68 1.02 0 0 Z M6 5 C8 6 8 6 8 6 Z " fill="#C35864" transform="translate(833,676)"/>
<path d="M0 0 C1.65 0 3.3 0 5 0 C4.67 1.98 4.34 3.96 4 6 C2.68 5.34 1.36 4.68 0 4 C0 2.68 0 1.36 0 0 Z " fill="#C7646F" transform="translate(573,503)"/>
<path d="M0 0 C0.99 0.33 1.98 0.66 3 1 C2.505 1.887 2.01 2.774 1.5 3.688 C0.056 6.876 -0.302 8.582 0 12 C-0.66 11.67 -1.32 11.34 -2 11 C-2.25 3.375 -2.25 3.375 0 0 Z " fill="#F3F0F0" transform="translate(586,567)"/>
<path d="M0 0 C3.703 -0.337 5.395 -0.477 8.375 1.875 C10 4 10 4 10 6 C9.34 6 8.68 6 8 6 C7.67 7.32 7.34 8.64 7 10 C6.876 9.051 6.753 8.102 6.625 7.125 C6.283 3.913 6.283 3.913 4 2 C2.683 1.303 1.351 0.63 0 0 Z " fill="#EDDFE1" transform="translate(612,566)"/>
<path d="M0 0 C1.32 0.33 2.64 0.66 4 1 C3.67 2.32 3.34 3.64 3 5 C1.02 5 -0.96 5 -3 5 C-2.01 3.35 -1.02 1.7 0 0 Z " fill="#C45C68" transform="translate(580,488)"/>
<path d="M0 0 C2.97 0 5.94 0 9 0 C9 0.66 9 1.32 9 2 C4.545 2.495 4.545 2.495 0 3 C0 2.01 0 1.02 0 0 Z " fill="#C45C68" transform="translate(715,676)"/>
<path d="M0 0 C0.99 0.33 1.98 0.66 3 1 C3 1.99 3 2.98 3 4 C6.63 4 10.26 4 14 4 C14 4.33 14 4.66 14 5 C10.37 5 6.74 5 3 5 C2.67 5.66 2.34 6.32 2 7 C1.34 4.69 0.68 2.38 0 0 Z " fill="#E4D4D6" transform="translate(769,570)"/>
<path d="M0 0 C3.703 -0.337 5.395 -0.477 8.375 1.875 C10 4 10 4 10 6 C9.01 6.33 8.02 6.66 7 7 C6.34 5.02 5.68 3.04 5 1 C3.35 1 1.7 1 0 1 C0 0.67 0 0.34 0 0 Z " fill="#EBDADC" transform="translate(673,566)"/>
<path d="M0 0 C-0.33 0.99 -0.66 1.98 -1 3 C-3.709 4.354 -6.009 4.065 -9 4 C-9.33 3.34 -9.66 2.68 -10 2 C-3.375 0 -3.375 0 0 0 Z " fill="#F1EDED" transform="translate(597,578)"/>
<path d="M0 0 C-0.625 1.938 -0.625 1.938 -2 4 C-5.125 4.75 -5.125 4.75 -8 5 C-8 4.34 -8 3.68 -8 3 C-5.095 0.958 -3.599 0 0 0 Z " fill="#F0E7E8" transform="translate(683,577)"/>
<path d="M0 0 C0.66 0 1.32 0 2 0 C1.67 1.32 1.34 2.64 1 4 C-1.31 4.33 -3.62 4.66 -6 5 C-6 4.34 -6 3.68 -6 3 C-5.196 2.691 -4.391 2.381 -3.562 2.062 C-1.109 1.237 -1.109 1.237 0 0 Z " fill="#F0EAEB" transform="translate(486,577)"/>
<path d="M0 0 C0.33 0.99 0.66 1.98 1 3 C1.66 3.33 2.32 3.66 3 4 C2.34 4 1.68 4 1 4 C1.33 4.99 1.66 5.98 2 7 C3.65 7.33 5.3 7.66 7 8 C7 8.33 7 8.66 7 9 C4.69 9.33 2.38 9.66 0 10 C-1.37 7.261 -1.126 5.029 -1 2 C-0.67 1.34 -0.34 0.68 0 0 Z " fill="#E2C5C8" transform="translate(586,571)"/>
<path d="M0 0 C3.625 -0.188 3.625 -0.188 7 0 C6.01 0.66 5.02 1.32 4 2 C2.326 3.324 0.658 4.656 -1 6 C-1.33 5.01 -1.66 4.02 -2 3 C-1.34 2.01 -0.68 1.02 0 0 Z " fill="#F2ECED" transform="translate(671,567)"/>
<path d="M0 0 C2.625 -0.188 2.625 -0.188 5 0 C5.33 0.99 5.66 1.98 6 3 C3.36 3 0.72 3 -2 3 C-1.34 2.01 -0.68 1.02 0 0 Z " fill="#B8414E" transform="translate(391,569)"/>
<path d="M0 0 C0.99 0.33 1.98 0.66 3 1 C4.188 4.062 4.188 4.062 5 7 C4.01 7.33 3.02 7.66 2 8 C0.743 5.094 0 3.204 0 0 Z " fill="#ECDDDE" transform="translate(568,566)"/>
<path d="M0 0 C0.99 0 1.98 0 3 0 C2.375 1.938 2.375 1.938 1 4 C-2.125 4.75 -2.125 4.75 -5 5 C-5 4.34 -5 3.68 -5 3 C-4.361 2.876 -3.721 2.753 -3.062 2.625 C-2.042 2.316 -2.042 2.316 -1 2 C-0.67 1.34 -0.34 0.68 0 0 Z " fill="#F6F3F3" transform="translate(397,577)"/>
<path d="M0 0 C0 0.66 0 1.32 0 2 C-2.31 2.33 -4.62 2.66 -7 3 C-7.33 2.34 -7.66 1.68 -8 1 C-3.375 -1.125 -3.375 -1.125 0 0 Z " fill="#E0E0E3" transform="translate(504,671)"/>
<path d="M0 0 C0.66 0 1.32 0 2 0 C1.34 2.64 0.68 5.28 0 8 C-0.99 7.67 -1.98 7.34 -3 7 C-1.125 1.125 -1.125 1.125 0 0 Z " fill="#EBDADC" transform="translate(580,566)"/>
<path d="M0 0 C1.32 0.33 2.64 0.66 4 1 C2.938 2.5 2.938 2.5 1 4 C-2.688 4.188 -2.688 4.188 -6 4 C-6 3.67 -6 3.34 -6 3 C-5.196 2.876 -4.391 2.753 -3.562 2.625 C-2.717 2.419 -1.871 2.212 -1 2 C-0.67 1.34 -0.34 0.68 0 0 Z " fill="#EBDEE0" transform="translate(806,578)"/>
<path d="M0 0 C0.99 0 1.98 0 3 0 C2.34 1.32 1.68 2.64 1 4 C-1.31 4 -3.62 4 -6 4 C-6 3.67 -6 3.34 -6 3 C-4.35 3 -2.7 3 -1 3 C-0.67 2.01 -0.34 1.02 0 0 Z " fill="#EDE4E6" transform="translate(562,578)"/>
<path d="M0 0 C0.99 0.33 1.98 0.66 3 1 C3 3.31 3 5.62 3 8 C2.01 7.34 1.02 6.68 0 6 C-0.188 2.875 -0.188 2.875 0 0 Z " fill="#EBDFE1" transform="translate(511,569)"/>
<path d="M0 0 C2.875 -0.188 2.875 -0.188 6 0 C6.66 0.99 7.32 1.98 8 3 C5.16 3 2.763 2.597 0 2 C0 1.34 0 0.68 0 0 Z " fill="#EFE7E9" transform="translate(588,566)"/>
<path d="M0 0 C-0.33 1.32 -0.66 2.64 -1 4 C-2.32 4 -3.64 4 -5 4 C-5 3.01 -5 2.02 -5 1 C-2 0 -2 0 0 0 Z " fill="#E2E4E8" transform="translate(504,675)"/>
<path d="M0 0 C1.32 0 2.64 0 4 0 C4.33 0.99 4.66 1.98 5 3 C2.69 3 0.38 3 -2 3 C-1.34 2.01 -0.68 1.02 0 0 Z " fill="#BB4553" transform="translate(775,569)"/>
<path d="M0 0 C1.32 0.33 2.64 0.66 4 1 C1.69 2.65 -0.62 4.3 -3 6 C-2 2 -2 2 0 0 Z " fill="#F6F3F4" transform="translate(555,567)"/>
<path d="M0 0 C-0.33 1.32 -0.66 2.64 -1 4 C-2.32 4 -3.64 4 -5 4 C-4.67 3.01 -4.34 2.02 -4 1 C-2 0 -2 0 0 0 Z " fill="#BC5964" transform="translate(736,675)"/>
<path d="M0 0 C0.99 0 1.98 0 3 0 C2.188 1.938 2.188 1.938 1 4 C0.01 4.33 -0.98 4.66 -2 5 C-1.125 1.125 -1.125 1.125 0 0 Z " fill="#ECE1E3" transform="translate(780,577)"/>
<path d="M0 0 C0.99 0 1.98 0 3 0 C3 1.32 3 2.64 3 4 C1.68 3.67 0.36 3.34 -1 3 C-0.67 2.01 -0.34 1.02 0 0 Z " fill="#EEDDDF" transform="translate(814,578)"/>
<path d="M0 0 C2.062 0.438 2.062 0.438 4 1 C4 1.99 4 2.98 4 4 C2.68 4 1.36 4 0 4 C-0.33 3.01 -0.66 2.02 -1 1 C-0.67 0.67 -0.34 0.34 0 0 Z " fill="#E6D0D3" transform="translate(707,578)"/>
<path d="M0 0 C2.475 0.99 2.475 0.99 5 2 C5 2.66 5 3.32 5 4 C3.35 4 1.7 4 0 4 C-0.33 3.34 -0.66 2.68 -1 2 C-0.67 1.34 -0.34 0.68 0 0 Z " fill="#F1ECED" transform="translate(423,578)"/>
<path d="M0 0 C1.938 0.312 1.938 0.312 4 1 C4.33 1.99 4.66 2.98 5 4 C3.062 3.688 3.062 3.688 1 3 C0.67 2.01 0.34 1.02 0 0 Z " fill="#EFE2E4" transform="translate(728,577)"/>
<path d="M0 0 C1.65 0.33 3.3 0.66 5 1 C4.01 2.485 4.01 2.485 3 4 C1.68 3.67 0.36 3.34 -1 3 C-0.67 2.01 -0.34 1.02 0 0 Z " fill="#F0E9EA" transform="translate(733,572)"/>
<path d="M0 0 C1.98 0 3.96 0 6 0 C2 2 2 2 -2 4 C-1.34 2.68 -0.68 1.36 0 0 Z " fill="#F4F4F4" transform="translate(772,567)"/>
<path d="M0 0 C0.33 0.99 0.66 1.98 1 3 C1.66 3 2.32 3 3 3 C3 3.99 3 4.98 3 6 C2.01 6.33 1.02 6.66 0 7 C0 4.69 0 2.38 0 0 Z " fill="#BEC7D0" transform="translate(414,670)"/>
<path d="M0 0 C2.31 0 4.62 0 7 0 C7.33 0.99 7.66 1.98 8 3 C5.36 2.34 2.72 1.68 0 1 C0 0.67 0 0.34 0 0 Z " fill="#F9FBFB" transform="translate(732,567)"/>
<path d="M0 0 C0.99 0 1.98 0 3 0 C3 1.32 3 2.64 3 4 C2.01 4 1.02 4 0 4 C0 2.68 0 1.36 0 0 Z " fill="#EEE3E4" transform="translate(722,560)"/>
<path d="M0 0 C0.33 0.66 0.66 1.32 1 2 C-0.32 3.32 -1.64 4.64 -3 6 C-2.427 3.133 -2.139 2.139 0 0 Z " fill="#B0414D" transform="translate(266,550)"/>
<path d="M0 0 C0.66 0.99 1.32 1.98 2 3 C1.34 3.66 0.68 4.32 0 5 C-0.562 3.062 -0.562 3.062 -1 1 C-0.67 0.67 -0.34 0.34 0 0 Z " fill="#E8DFE0" transform="translate(671,572)"/>
<path d="M0 0 C0.99 0.33 1.98 0.66 3 1 C3 1.66 3 2.32 3 3 C2.01 3 1.02 3 0 3 C0 2.01 0 1.02 0 0 Z " fill="#F0E9EA" transform="translate(571,573)"/>
<path d="M0 0 C0.99 0.33 1.98 0.66 3 1 C2.01 2.485 2.01 2.485 1 4 C0.67 2.68 0.34 1.36 0 0 Z " fill="#ECE1E2" transform="translate(509,567)"/>
</svg>