<?xml version="1.0" standalone="no"?>
<!DOCTYPE svg PUBLIC "-//W3C//DTD SVG 20010904//EN"
 "http://www.w3.org/TR/2001/REC-SVG-20010904/DTD/svg10.dtd">
<svg version="1.0" xmlns="http://www.w3.org/2000/svg"
 width="1024.000000pt" height="1024.000000pt" viewBox="0 0 1024.000000 1024.000000"
 preserveAspectRatio="xMidYMid meet">

<g transform="translate(0.000000,1024.000000) scale(0.100000,-0.100000)"
fill="#000000" stroke="none">
<path d="M3430 7909 c-86 -15 -241 -71 -326 -120 -96 -55 -243 -193 -313 -293
-63 -91 -101 -172 -138 -291 l-28 -90 0 -1645 c0 -1825 -5 -1676 65 -1859 58
-149 184 -312 325 -418 119 -90 292 -160 450 -183 58 -8 528 -10 1700 -8
l1620 3 80 22 c188 51 336 134 464 261 125 124 215 277 264 449 l22 78 3 1612
c2 1552 2 1617 -17 1705 -42 207 -135 373 -289 519 -105 99 -217 169 -338 211
-173 60 -95 57 -1864 56 -926 0 -1649 -4 -1680 -9z m650 -1272 c71 -47 94
-140 53 -208 -11 -19 -85 -115 -164 -214 -322 -401 -569 -721 -567 -732 3 -12
405 -526 618 -789 129 -161 148 -198 131 -261 -14 -53 -36 -80 -81 -103 -76
-39 -156 -19 -212 54 -18 22 -201 252 -408 510 -206 258 -385 487 -397 509
-27 47 -29 105 -7 150 9 18 58 84 109 147 99 124 442 558 620 784 61 77 123
148 140 158 43 26 123 24 165 -5z m2259 -2 c23 -20 815 -1020 843 -1062 25
-39 31 -94 15 -139 -8 -25 -114 -166 -273 -365 -306 -383 -511 -641 -545 -687
-83 -115 -250 -87 -290 47 -21 71 -8 92 316 501 168 212 335 422 371 468 36
46 63 89 60 97 -2 7 -166 215 -362 462 -197 246 -367 464 -377 483 -36 68 -10
148 64 198 29 20 44 23 96 20 42 -3 68 -10 82 -23z m-1125 -1078 c9 -12 45
-88 82 -167 36 -80 134 -291 217 -470 169 -366 267 -581 267 -586 0 -2 -78 -4
-172 -4 l-173 1 -155 339 c-85 187 -157 340 -161 340 -3 0 -75 -153 -160 -340
l-154 -340 -174 0 c-134 0 -172 3 -168 13 2 6 69 152 147 322 79 171 198 432
265 580 71 156 135 284 153 303 28 30 33 32 100 32 63 0 73 -3 86 -23z"/>
<path d="M5653 2534 c-103 -38 -175 -141 -181 -260 -7 -121 49 -218 161 -276
34 -18 59 -22 127 -22 72 0 92 4 135 26 105 55 160 146 159 263 -1 114 -55
204 -157 257 -55 28 -183 35 -244 12z m205 -117 c94 -62 107 -209 25 -290
-114 -115 -293 -32 -293 136 0 151 146 235 268 154z"/>
<path d="M3590 2260 l0 -280 215 0 215 0 0 50 0 50 -155 0 -155 0 0 64 c0 49
4 65 16 70 9 3 69 6 135 6 l119 0 0 45 0 45 -135 0 -135 0 0 34 c0 18 -3 48
-6 65 l-6 31 159 0 c177 0 168 -4 157 68 l-5 32 -209 0 -210 0 0 -280z"/>
<path d="M4130 2261 l0 -281 127 0 c160 0 225 17 290 73 64 57 93 123 93 212
0 83 -21 135 -75 190 -68 67 -109 79 -282 83 l-153 4 0 -281z m296 154 c65
-32 94 -81 94 -157 0 -111 -65 -168 -202 -176 l-78 -5 0 182 0 181 68 0 c53 0
80 -6 118 -25z"/>
<path d="M4760 2260 l0 -280 55 0 55 0 0 280 0 280 -55 0 -55 0 0 -280z"/>
<path d="M4960 2490 l0 -50 90 0 90 0 0 -230 0 -230 55 0 55 0 0 230 0 230 90
0 90 0 0 50 0 50 -235 0 -235 0 0 -50z"/>
<path d="M6170 2260 l0 -280 55 0 55 0 0 95 0 95 58 0 57 -1 61 -92 61 -92 66
-3 c37 -2 67 -1 67 2 0 3 -29 47 -65 98 -36 50 -65 94 -65 98 0 3 16 14 35 24
87 47 112 190 47 267 -49 59 -88 69 -269 69 l-163 0 0 -280z m325 155 c36 -35
35 -96 -1 -124 -23 -18 -41 -21 -120 -21 l-94 0 0 85 0 85 95 0 c88 0 98 -2
120 -25z"/>
</g>
</svg>
